<svg width="400" height="102" viewBox="0 0 400 102" fill="none" xmlns="http://www.w3.org/2000/svg">
<path d="M234 72C235.105 72 236 71.1046 236 70C236 68.8954 235.105 68 234 68C232.895 68 232 68.8954 232 70C232 71.1046 232.895 72 234 72Z" fill="black" style="fill:black;fill-opacity:1;"/>
<path d="M248 70C248 71.1046 247.105 72 246 72C244.895 72 244 71.1046 244 70C244 68.8954 244.895 68 246 68C247.105 68 248 68.8954 248 70Z" fill="black" style="fill:black;fill-opacity:1;"/>
<path d="M282 72C283.105 72 284 71.1046 284 70C284 68.8954 283.105 68 282 68C280.895 68 280 68.8954 280 70C280 71.1046 280.895 72 282 72Z" fill="black" style="fill:black;fill-opacity:1;"/>
<path fill-rule="evenodd" clip-rule="evenodd" d="M249.505 20.5625L213.884 24.4792L203 36.2292L249.505 27.4167V32H234V56H216V101H319V56H274V36.2292H278.2L292.053 47L278.2 24.4792H267.316L264.347 20.5625H286.116L297 27.4167L292.053 14.6875H264.347L292.053 0H278.2L252.474 14.6875V0L225.758 2.9375L205.968 20.5625L225.758 11.75H239.611L249.505 20.5625ZM261.498 32L258.411 27.4167L253.007 32H261.498ZM239 64.7097H224.704V92.2903H239V64.7097ZM240 64.7097V92.2903H275V64.7097H240ZM310.296 92.2903H276V64.7097H310.296V92.2903Z" fill="black" style="fill:black;fill-opacity:1;"/>
<path d="M193.807 102C194.749 102 195.652 101.941 196.516 101.824C198.753 101.51 200.912 100.884 202.992 99.9437C205.072 99.0037 206.937 97.8092 208.585 96.36L212 93.305L206.348 86.6075L202.874 89.1925C201.854 90.0933 200.676 90.8179 199.342 91.3662C198.046 91.9146 196.673 92.2867 195.22 92.4825C194.592 92.6 193.925 92.6588 193.219 92.6588C191.217 92.6588 189.313 92.2083 187.508 91.3075C185.074 90.1325 183.053 88.4287 181.443 86.1962C180.03 84.0812 179.265 81.555 179.147 78.6175C179.147 75.9542 179.873 73.4279 181.326 71.0387C182.582 68.8846 184.544 67.1221 187.213 65.7513C189.058 64.7721 191.079 64.2825 193.277 64.2825C193.748 64.2825 194.337 64.3217 195.044 64.4C196.417 64.5175 197.752 64.87 199.047 65.4575C200.382 66.045 201.599 66.8087 202.698 67.7487L206.112 70.275L211.764 63.4012L208.409 60.3463C206.721 58.9754 204.817 57.8396 202.698 56.9388C200.617 56.0379 198.419 55.4308 196.103 55.1175C195.593 55.0392 194.769 55 193.631 55C189.745 55 186.252 55.7442 183.151 57.2325C181.188 58.1725 179.343 59.4258 177.616 60.9925C175.929 62.52 174.535 64.165 173.436 65.9275C172.259 67.8075 171.356 69.8442 170.728 72.0375C170.1 74.2308 169.786 76.4437 169.786 78.6762C169.786 80.7912 170.12 82.9454 170.787 85.1387C171.454 87.2929 172.396 89.31 173.613 91.19C174.79 93.0308 176.243 94.715 177.97 96.2425C179.697 97.7308 181.541 98.9254 183.504 99.8262C184.996 100.531 186.624 101.06 188.391 101.412C190.196 101.804 192.002 102 193.807 102Z" fill="black" style="fill:black;fill-opacity:1;"/>
<path d="M9.12578 100.766H0V56.645H9.12578V73.1537H28.967V56.645H38.0928V100.766H28.967V82.3775H9.12578V100.766Z" fill="black" style="fill:black;fill-opacity:1;"/>
<path fill-rule="evenodd" clip-rule="evenodd" d="M81.1771 100.766H71.4037L66.988 89.6037H53.9764L49.5607 100.766H39.7873L57.2146 56.645H63.7498L81.1771 100.766ZM60.4528 73.095L57.509 80.615H63.4554L60.4528 73.095Z" fill="black" style="fill:black;fill-opacity:1;"/>
<path fill-rule="evenodd" clip-rule="evenodd" d="M112.184 100.766H122.193L113.244 81.79C115.049 80.4975 116.443 78.8329 117.424 76.7962C118.445 74.7596 118.955 72.6446 118.955 70.4512C118.955 67.9837 118.327 65.6925 117.071 63.5775C115.854 61.4625 114.186 59.7783 112.066 58.525C109.947 57.2717 107.651 56.645 105.178 56.645H84.8067V100.766H93.9325V84.2575H105.178C104.825 84.2575 104.589 84.2771 104.471 84.3163L112.184 100.766ZM108.475 73.7412C107.572 74.6421 106.473 75.0925 105.178 75.0925H93.9325V65.7513H105.178C106.473 65.7513 107.572 66.2213 108.475 67.1612C109.378 68.0621 109.829 69.1588 109.829 70.4512C109.829 71.7438 109.378 72.8404 108.475 73.7412Z" fill="black" style="fill:black;fill-opacity:1;"/>
<path fill-rule="evenodd" clip-rule="evenodd" d="M126.204 100.766V56.645H144.514C148.518 56.645 152.207 57.6437 155.583 59.6413C158.998 61.5996 161.686 64.2825 163.649 67.69C165.651 71.0583 166.652 74.74 166.652 78.735C166.652 82.73 165.651 86.4117 163.649 89.78C161.686 93.1483 158.998 95.8312 155.583 97.8288C152.207 99.7871 148.518 100.766 144.514 100.766H126.204ZM144.514 91.66C146.869 91.66 149.028 91.0921 150.991 89.9563C152.992 88.7812 154.582 87.2146 155.76 85.2562C156.937 83.2588 157.526 81.085 157.526 78.735C157.526 76.385 156.937 74.2113 155.76 72.2137C154.621 70.2162 153.051 68.6496 151.05 67.5137C149.048 66.3388 146.869 65.7513 144.514 65.7513H135.33V91.66H144.514Z" fill="black" style="fill:black;fill-opacity:1;"/>
<path fill-rule="evenodd" clip-rule="evenodd" d="M352.18 100H362.116L353.232 81.0759C355.024 79.7869 356.408 78.1269 357.382 76.0959C358.395 74.0648 358.902 71.9556 358.902 69.7683C358.902 67.3076 358.278 65.0226 357.031 62.9134C355.823 60.8043 354.167 59.1247 352.063 57.8748C349.959 56.6249 347.679 56 345.224 56H325V100H334.06V83.5366H345.224C344.873 83.5366 344.64 83.5561 344.523 83.5952L352.18 100ZM348.497 73.0493C347.601 73.9476 346.51 74.3968 345.224 74.3968H334.06V65.0812H345.224C346.51 65.0812 347.601 65.5499 348.497 66.4874C349.394 67.3857 349.842 68.4794 349.842 69.7683C349.842 71.0573 349.394 72.1509 348.497 73.0493Z" fill="black" style="fill:black;fill-opacity:1;"/>
<path fill-rule="evenodd" clip-rule="evenodd" d="M393.161 57.8748C391.057 56.6249 388.777 56 386.322 56H366.098V100H375.158V83.5366H386.322C388.777 83.5366 391.057 82.9117 393.161 81.6618C395.265 80.4119 396.922 78.7324 398.13 76.6232C399.377 74.514 400 72.229 400 69.7683C400 67.3076 399.377 65.0226 398.13 62.9134C396.922 60.8043 395.265 59.1247 393.161 57.8748ZM389.537 73.0493C388.641 73.9476 387.569 74.3968 386.322 74.3968H375.158V65.0812H386.322C387.569 65.0812 388.641 65.5499 389.537 66.4874C390.472 67.4248 390.94 68.5184 390.94 69.7683C390.94 71.0573 390.472 72.1509 389.537 73.0493Z" fill="black" style="fill:black;fill-opacity:1;"/>
</svg>
