<svg width="50" height="50" viewBox="0 0 50 50" fill="none" xmlns="http://www.w3.org/2000/svg">
<g id="Quotes" clip-path="url(#clip0_86_2184)">
<path id="Vector" d="M22.6562 14.0625V31.25C22.6537 33.7356 21.6651 36.1187 19.9075 37.8763C18.1499 39.6339 15.7669 40.6224 13.2812 40.625C12.8668 40.625 12.4694 40.4604 12.1764 40.1674C11.8834 39.8743 11.7188 39.4769 11.7188 39.0625C11.7188 38.6481 11.8834 38.2507 12.1764 37.9576C12.4694 37.6646 12.8668 37.5 13.2812 37.5C14.9389 37.5 16.5286 36.8415 17.7007 35.6694C18.8728 34.4973 19.5312 32.9076 19.5312 31.25V29.6875H7.8125C6.9837 29.6875 6.18884 29.3583 5.60279 28.7722C5.01674 28.1862 4.6875 27.3913 4.6875 26.5625V14.0625C4.6875 13.2337 5.01674 12.4388 5.60279 11.8528C6.18884 11.2667 6.9837 10.9375 7.8125 10.9375H19.5312C20.3601 10.9375 21.1549 11.2667 21.741 11.8528C22.327 12.4388 22.6562 13.2337 22.6562 14.0625ZM42.1875 10.9375H30.4688C29.6399 10.9375 28.8451 11.2667 28.259 11.8528C27.673 12.4388 27.3438 13.2337 27.3438 14.0625V26.5625C27.3438 27.3913 27.673 28.1862 28.259 28.7722C28.8451 29.3583 29.6399 29.6875 30.4688 29.6875H42.1875V31.25C42.1875 32.9076 41.529 34.4973 40.3569 35.6694C39.1848 36.8415 37.5951 37.5 35.9375 37.5C35.5231 37.5 35.1257 37.6646 34.8326 37.9576C34.5396 38.2507 34.375 38.6481 34.375 39.0625C34.375 39.4769 34.5396 39.8743 34.8326 40.1674C35.1257 40.4604 35.5231 40.625 35.9375 40.625C38.4231 40.6224 40.8062 39.6339 42.5638 37.8763C44.3214 36.1187 45.3099 33.7356 45.3125 31.25V14.0625C45.3125 13.2337 44.9833 12.4388 44.3972 11.8528C43.8112 11.2667 43.0163 10.9375 42.1875 10.9375Z" fill="#BDBDED"/>
</g>
<defs>
<clipPath id="clip0_86_2184">
<rect width="50" height="50" fill="white"/>
</clipPath>
</defs>
</svg>
