<svg width="158" height="75" viewBox="0 0 158 75" fill="none" xmlns="http://www.w3.org/2000/svg">
<rect x="86" y="34" width="21.9209" height="21.9209" fill="#D9D9D9" stroke="black" style="fill:#D9D9D9;fill:color(display-p3 0.8510 0.8510 0.8510);fill-opacity:1;stroke:black;stroke-opacity:1;" stroke-width="1.37005" stroke-linejoin="round"/>
<path d="M46 40.1652L56.9604 34V55.9209L46 62.0861V40.1652Z" fill="#D9D9D9" stroke="black" style="fill:#D9D9D9;fill:color(display-p3 0.8510 0.8510 0.8510);fill-opacity:1;stroke:black;stroke-opacity:1;" stroke-width="1.37005" stroke-linejoin="round"/>
<rect x="67" y="41.165" width="21.9209" height="21.9209" fill="#FCF3A0" stroke="black" style="fill:#FCF3A0;fill:color(display-p3 0.9882 0.9529 0.6275);fill-opacity:1;stroke:black;stroke-opacity:1;" stroke-width="1.37005" stroke-linejoin="round"/>
<path d="M56 17H134L120 25H43L56 17Z" fill="#D9D9D9" stroke="black" style="fill:#D9D9D9;fill:color(display-p3 0.8510 0.8510 0.8510);fill-opacity:1;stroke:black;stroke-opacity:1;" stroke-width="1.37005" stroke-linejoin="round"/>
<path d="M38.5 41H31M38.5 47H18M61 9.5V2M66.5 9.5V5.5" stroke="black" style="stroke:black;stroke-opacity:1;"/>
<mask id="path-6-outside-1_1048_262" maskUnits="userSpaceOnUse" x="115" y="35" width="22" height="29" fill="black">
<rect fill="white" x="115" y="35" width="22" height="29"/>
<path d="M125.766 51.4687C125.219 52.0156 124.581 52.4167 123.852 52.6719V62.3516H120.352V60H116.852V56.5H120.352V52.6719C119.294 52.3073 118.438 51.6875 117.781 50.8125C117.161 49.901 116.852 48.8802 116.852 47.75C116.852 46.2917 117.362 45.0521 118.383 44.0312C119.404 43.0104 120.643 42.5 122.102 42.5H122.211C121.628 43.6667 121.409 44.8698 121.555 46.1094C121.19 46.2187 120.898 46.4375 120.68 46.7656C120.461 47.0573 120.352 47.3854 120.352 47.75C120.352 48.224 120.516 48.6432 120.844 49.0078C121.172 49.3359 121.591 49.5 122.102 49.5C122.32 49.5 122.576 49.4453 122.867 49.3359C123.596 50.3203 124.563 51.0312 125.766 51.4687ZM135.172 58.1953L131.945 59.5078L131.07 57.375L127.844 58.7422L126.477 55.5156L129.703 54.1484L128.227 50.6484C127.133 50.7214 126.112 50.4661 125.164 49.8828C124.216 49.2995 123.523 48.4974 123.086 47.4766C122.503 46.1276 122.484 44.7786 123.031 43.4297C123.615 42.0807 124.563 41.1328 125.875 40.5859C126.094 40.4766 126.385 40.3854 126.75 40.3125C126.349 39.5833 125.784 39 125.055 38.5625C124.326 38.0885 123.523 37.8516 122.648 37.8516C121.372 37.8516 120.279 38.3073 119.367 39.2187C118.456 40.1302 118 41.224 118 42.5V42.7734C117.635 43.1016 117.307 43.4661 117.016 43.8672C116.906 43.3568 116.852 42.901 116.852 42.5C116.852 41.4427 117.107 40.4766 117.617 39.6016C118.128 38.6901 118.82 37.9792 119.695 37.4687C120.607 36.9219 121.591 36.6484 122.648 36.6484C123.706 36.6484 124.672 36.9219 125.547 37.4687C126.458 37.9792 127.169 38.6901 127.68 39.6016C128.227 40.4766 128.5 41.4427 128.5 42.5C128.5 43.3021 128.336 44.0677 128.008 44.7969C127.716 45.4896 127.279 46.1094 126.695 46.6562C126.951 46.9115 127.242 47.0755 127.57 47.1484C127.898 47.2214 128.245 47.1849 128.609 47.0391C129.047 46.8568 129.357 46.5469 129.539 46.1094C129.721 45.6354 129.721 45.1797 129.539 44.7422C129.503 44.6328 129.448 44.5234 129.375 44.4141C129.557 43.7578 129.648 43.1198 129.648 42.5C129.648 41.7708 129.539 41.0599 129.32 40.3672C130.086 40.5859 130.76 40.9687 131.344 41.5156C131.964 42.026 132.438 42.6458 132.766 43.375C133.203 44.4323 133.294 45.5078 133.039 46.6016C132.784 47.6589 132.237 48.5521 131.398 49.2812L135.172 58.1953ZM126.148 45.5078C126.586 45.0339 126.914 44.487 127.133 43.8672C126.805 44.013 126.549 44.25 126.367 44.5781C126.221 44.8698 126.148 45.1797 126.148 45.5078Z"/>
</mask>
<path d="M125.766 51.4687C125.219 52.0156 124.581 52.4167 123.852 52.6719V62.3516H120.352V60H116.852V56.5H120.352V52.6719C119.294 52.3073 118.438 51.6875 117.781 50.8125C117.161 49.901 116.852 48.8802 116.852 47.75C116.852 46.2917 117.362 45.0521 118.383 44.0312C119.404 43.0104 120.643 42.5 122.102 42.5H122.211C121.628 43.6667 121.409 44.8698 121.555 46.1094C121.19 46.2187 120.898 46.4375 120.68 46.7656C120.461 47.0573 120.352 47.3854 120.352 47.75C120.352 48.224 120.516 48.6432 120.844 49.0078C121.172 49.3359 121.591 49.5 122.102 49.5C122.32 49.5 122.576 49.4453 122.867 49.3359C123.596 50.3203 124.563 51.0312 125.766 51.4687ZM135.172 58.1953L131.945 59.5078L131.07 57.375L127.844 58.7422L126.477 55.5156L129.703 54.1484L128.227 50.6484C127.133 50.7214 126.112 50.4661 125.164 49.8828C124.216 49.2995 123.523 48.4974 123.086 47.4766C122.503 46.1276 122.484 44.7786 123.031 43.4297C123.615 42.0807 124.563 41.1328 125.875 40.5859C126.094 40.4766 126.385 40.3854 126.75 40.3125C126.349 39.5833 125.784 39 125.055 38.5625C124.326 38.0885 123.523 37.8516 122.648 37.8516C121.372 37.8516 120.279 38.3073 119.367 39.2187C118.456 40.1302 118 41.224 118 42.5V42.7734C117.635 43.1016 117.307 43.4661 117.016 43.8672C116.906 43.3568 116.852 42.901 116.852 42.5C116.852 41.4427 117.107 40.4766 117.617 39.6016C118.128 38.6901 118.82 37.9792 119.695 37.4687C120.607 36.9219 121.591 36.6484 122.648 36.6484C123.706 36.6484 124.672 36.9219 125.547 37.4687C126.458 37.9792 127.169 38.6901 127.68 39.6016C128.227 40.4766 128.5 41.4427 128.5 42.5C128.5 43.3021 128.336 44.0677 128.008 44.7969C127.716 45.4896 127.279 46.1094 126.695 46.6562C126.951 46.9115 127.242 47.0755 127.57 47.1484C127.898 47.2214 128.245 47.1849 128.609 47.0391C129.047 46.8568 129.357 46.5469 129.539 46.1094C129.721 45.6354 129.721 45.1797 129.539 44.7422C129.503 44.6328 129.448 44.5234 129.375 44.4141C129.557 43.7578 129.648 43.1198 129.648 42.5C129.648 41.7708 129.539 41.0599 129.32 40.3672C130.086 40.5859 130.76 40.9687 131.344 41.5156C131.964 42.026 132.438 42.6458 132.766 43.375C133.203 44.4323 133.294 45.5078 133.039 46.6016C132.784 47.6589 132.237 48.5521 131.398 49.2812L135.172 58.1953ZM126.148 45.5078C126.586 45.0339 126.914 44.487 127.133 43.8672C126.805 44.013 126.549 44.25 126.367 44.5781C126.221 44.8698 126.148 45.1797 126.148 45.5078Z" fill="#FCF3A0" style="fill:#FCF3A0;fill:color(display-p3 0.9882 0.9529 0.6275);fill-opacity:1;"/>
<path d="M125.766 51.4687L126.734 52.4375C127.066 52.1064 127.205 51.6292 127.103 51.172C127.002 50.7149 126.674 50.3412 126.234 50.1812L125.766 51.4687ZM123.852 52.6719L123.399 51.3787C122.849 51.5711 122.482 52.0897 122.482 52.6719H123.852ZM123.852 62.3516V63.7216C124.608 63.7216 125.222 63.1082 125.222 62.3516H123.852ZM120.352 62.3516H118.982C118.982 63.1082 119.595 63.7216 120.352 63.7216V62.3516ZM120.352 60H121.722C121.722 59.2433 121.108 58.6299 120.352 58.6299V60ZM116.852 60H115.482C115.482 60.7567 116.095 61.3701 116.852 61.3701V60ZM116.852 56.5V55.1299C116.095 55.1299 115.482 55.7433 115.482 56.5H116.852ZM120.352 56.5V57.8701C121.108 57.8701 121.722 57.2567 121.722 56.5H120.352ZM120.352 52.6719H121.722C121.722 52.0874 121.351 51.5672 120.798 51.3767L120.352 52.6719ZM117.781 50.8125L116.648 51.5829C116.66 51.6004 116.673 51.6176 116.685 51.6345L117.781 50.8125ZM118.383 44.0312L117.414 43.0625L118.383 44.0312ZM122.211 42.5L123.436 43.1127C123.649 42.688 123.626 42.1836 123.376 41.7797C123.127 41.3758 122.686 41.1299 122.211 41.1299V42.5ZM121.555 46.1094L121.948 47.4216C122.585 47.2306 122.993 46.6097 122.915 45.9493L121.555 46.1094ZM120.68 46.7656L121.776 47.5877C121.791 47.5674 121.806 47.5467 121.82 47.5256L120.68 46.7656ZM120.844 49.0078L119.825 49.9243C119.841 49.9422 119.858 49.9596 119.875 49.9766L120.844 49.0078ZM122.867 49.3359L123.968 48.5204C123.604 48.0291 122.959 47.8384 122.386 48.0531L122.867 49.3359ZM135.172 58.1953L135.688 59.4644C136.028 59.3262 136.298 59.0576 136.438 58.7187C136.578 58.3798 136.576 57.9989 136.434 57.6612L135.172 58.1953ZM131.945 59.5078L130.678 60.0278C130.964 60.7264 131.762 61.0614 132.462 60.7769L131.945 59.5078ZM131.07 57.375L132.338 56.855C132.199 56.5163 131.93 56.2473 131.592 56.108C131.253 55.9687 130.873 55.9707 130.536 56.1135L131.07 57.375ZM127.844 58.7422L126.582 59.2767C126.877 59.9734 127.682 60.2989 128.378 60.0037L127.844 58.7422ZM126.477 55.5156L125.942 54.2541C125.245 54.5494 124.92 55.3535 125.215 56.0501L126.477 55.5156ZM129.703 54.1484L130.238 55.4099C130.934 55.115 131.259 54.3123 130.965 53.6159L129.703 54.1484ZM128.227 50.6484L129.489 50.1159C129.262 49.5776 128.718 49.2426 128.135 49.2814L128.227 50.6484ZM125.164 49.8828L125.882 48.716L125.164 49.8828ZM123.086 47.4766L124.345 46.9369L124.343 46.9328L123.086 47.4766ZM123.031 43.4297L121.774 42.8859C121.77 42.8955 121.766 42.9052 121.762 42.915L123.031 43.4297ZM125.875 40.5859L126.402 41.8506C126.431 41.8385 126.46 41.8254 126.488 41.8113L125.875 40.5859ZM126.75 40.3125L127.019 41.6559C127.447 41.5704 127.808 41.286 127.992 40.8902C128.176 40.4944 128.161 40.0347 127.95 39.6522L126.75 40.3125ZM125.055 38.5625L124.308 39.7112C124.322 39.7202 124.336 39.7289 124.35 39.7373L125.055 38.5625ZM119.367 39.2187L118.398 38.25L119.367 39.2187ZM118 42.7734L118.917 43.7918C119.205 43.532 119.37 43.1618 119.37 42.7734H118ZM117.016 43.8672L115.676 44.1543C115.789 44.6828 116.203 45.0954 116.732 45.2075C117.26 45.3195 117.806 45.1102 118.124 44.673L117.016 43.8672ZM117.617 39.6016L118.801 40.2919C118.805 40.285 118.809 40.278 118.813 40.271L117.617 39.6016ZM119.695 37.4687L120.386 38.6522C120.391 38.6493 120.395 38.6465 120.4 38.6436L119.695 37.4687ZM125.547 37.4687L124.821 38.6306C124.839 38.6422 124.858 38.6534 124.877 38.6641L125.547 37.4687ZM127.68 39.6016L126.484 40.271C126.495 40.2901 126.506 40.3091 126.518 40.3277L127.68 39.6016ZM128.008 44.7969L126.758 44.2347C126.754 44.2448 126.749 44.255 126.745 44.2652L128.008 44.7969ZM126.695 46.6562L125.758 45.6567C125.488 45.9105 125.331 46.2632 125.325 46.6342C125.319 47.0051 125.464 47.3627 125.727 47.625L126.695 46.6562ZM128.609 47.0391L129.118 48.3111C129.124 48.3087 129.13 48.3062 129.136 48.3037L128.609 47.0391ZM129.539 46.1094L130.804 46.6363C130.809 46.6247 130.813 46.613 130.818 46.6012L129.539 46.1094ZM129.539 44.7422L128.239 45.1754C128.25 45.2071 128.262 45.2383 128.274 45.2691L129.539 44.7422ZM129.375 44.4141L128.055 44.0474C127.948 44.4313 128.014 44.8425 128.235 45.174L129.375 44.4141ZM129.32 40.3672L129.697 39.0498C129.212 38.9113 128.69 39.0504 128.338 39.4119C127.987 39.7734 127.862 40.2988 128.014 40.7798L129.32 40.3672ZM131.344 41.5156L130.407 42.5151C130.428 42.5352 130.45 42.5546 130.473 42.5732L131.344 41.5156ZM132.766 43.375L134.032 42.8512C134.026 42.8383 134.021 42.8255 134.015 42.8128L132.766 43.375ZM133.039 46.6016L134.371 46.923L134.373 46.9129L133.039 46.6016ZM131.398 49.2812L130.499 48.2474C130.052 48.6365 129.906 49.2693 130.137 49.8153L131.398 49.2812ZM126.148 45.5078H124.778C124.778 46.0719 125.124 46.5784 125.65 46.7838C126.175 46.9892 126.773 46.8516 127.155 46.4371L126.148 45.5078ZM127.133 43.8672L128.425 44.3232C128.607 43.8072 128.464 43.2323 128.063 42.8609C127.661 42.4896 127.076 42.393 126.576 42.6152L127.133 43.8672ZM126.367 44.5781L125.17 43.9128C125.16 43.9301 125.151 43.9477 125.142 43.9654L126.367 44.5781ZM124.797 50.5C124.395 50.9015 123.934 51.1916 123.399 51.3787L124.304 53.965C125.228 53.6417 126.042 53.1297 126.734 52.4375L124.797 50.5ZM122.482 52.6719V62.3516H125.222V52.6719H122.482ZM123.852 60.9815H120.352V63.7216H123.852V60.9815ZM121.722 62.3516V60H118.982V62.3516H121.722ZM120.352 58.6299H116.852V61.3701H120.352V58.6299ZM118.222 60V56.5H115.482V60H118.222ZM116.852 57.8701H120.352V55.1299H116.852V57.8701ZM121.722 56.5V52.6719H118.982V56.5H121.722ZM120.798 51.3767C119.994 51.0992 119.365 50.6412 118.877 49.9905L116.685 51.6345C117.51 52.7338 118.595 53.5154 119.905 53.9671L120.798 51.3767ZM118.914 50.0421C118.453 49.3639 118.222 48.6129 118.222 47.75H115.482C115.482 49.1476 115.87 50.4382 116.648 51.5829L118.914 50.0421ZM118.222 47.75C118.222 46.6509 118.591 45.761 119.352 45L117.414 43.0625C116.133 44.3432 115.482 45.9325 115.482 47.75H118.222ZM119.352 45C120.113 44.239 121.002 43.8701 122.102 43.8701V41.1299C120.284 41.1299 118.695 41.7818 117.414 43.0625L119.352 45ZM122.102 43.8701H122.211V41.1299H122.102V43.8701ZM120.986 41.8873C120.288 43.2815 120.016 44.7523 120.194 46.2695L122.915 45.9493C122.802 44.9873 122.967 44.0518 123.436 43.1127L120.986 41.8873ZM121.161 44.7971C120.479 45.0016 119.928 45.4226 119.54 46.0057L121.82 47.5256C121.868 47.4524 121.901 47.4359 121.948 47.4216L121.161 44.7971ZM119.584 45.9436C119.187 46.4724 118.982 47.089 118.982 47.75H121.722C121.722 47.6819 121.735 47.6422 121.776 47.5877L119.584 45.9436ZM118.982 47.75C118.982 48.5752 119.28 49.3178 119.825 49.9243L121.862 48.0913C121.752 47.9686 121.722 47.8727 121.722 47.75H118.982ZM119.875 49.9766C120.487 50.5885 121.268 50.8701 122.102 50.8701V48.1299C121.915 48.1299 121.857 48.0833 121.813 48.039L119.875 49.9766ZM122.102 50.8701C122.538 50.8701 122.963 50.7633 123.348 50.6188L122.386 48.0531C122.292 48.0885 122.22 48.1085 122.17 48.1193C122.119 48.1302 122.098 48.1299 122.102 48.1299V50.8701ZM121.766 50.1514C122.663 51.3619 123.854 52.2313 125.297 52.7563L126.234 50.1812C125.271 49.8312 124.53 49.2787 123.968 48.5204L121.766 50.1514ZM134.656 56.9262L131.429 58.2387L132.462 60.7769L135.688 59.4644L134.656 56.9262ZM133.213 58.9878L132.338 56.855L129.803 57.895L130.678 60.0278L133.213 58.9878ZM130.536 56.1135L127.309 57.4807L128.378 60.0037L131.605 58.6365L130.536 56.1135ZM129.105 58.2077L127.738 54.9811L125.215 56.0501L126.582 59.2767L129.105 58.2077ZM127.011 56.7771L130.238 55.4099L129.169 52.887L125.942 54.2541L127.011 56.7771ZM130.965 53.6159L129.489 50.1159L126.964 51.181L128.441 54.681L130.965 53.6159ZM128.135 49.2814C127.33 49.3351 126.592 49.1526 125.882 48.716L124.446 51.0496C125.632 51.7797 126.935 52.1076 128.318 52.0155L128.135 49.2814ZM125.882 48.716C125.174 48.2805 124.671 47.6972 124.345 46.9369L121.827 48.0163C122.376 49.2976 123.258 50.3185 124.446 51.0496L125.882 48.716ZM124.343 46.9328C123.904 45.9171 123.893 44.9495 124.301 43.9444L121.762 42.915C121.075 44.6078 121.101 46.3381 121.828 48.0204L124.343 46.9328ZM124.289 43.9735C124.736 42.9382 125.429 42.2559 126.402 41.8506L125.348 39.3213C123.696 40.0097 122.493 41.2232 121.774 42.8859L124.289 43.9735ZM126.488 41.8113C126.557 41.7769 126.718 41.716 127.019 41.6559L126.481 38.9691C126.052 39.0548 125.631 39.1763 125.262 39.3605L126.488 41.8113ZM127.95 39.6522C127.43 38.7059 126.692 37.947 125.76 37.3877L124.35 39.7373C124.876 40.053 125.268 40.4607 125.55 40.9728L127.95 39.6522ZM125.801 37.4138C124.849 36.7944 123.787 36.4815 122.648 36.4815V39.2216C123.26 39.2216 123.803 39.3826 124.308 39.7112L125.801 37.4138ZM122.648 36.4815C121.005 36.4815 119.564 37.0845 118.398 38.25L120.336 40.1875C120.993 39.5301 121.74 39.2216 122.648 39.2216V36.4815ZM118.398 38.25C117.233 39.4154 116.63 40.8565 116.63 42.5H119.37C119.37 41.5914 119.679 40.845 120.336 40.1875L118.398 38.25ZM116.63 42.5V42.7734H119.37V42.5H116.63ZM117.083 41.7551C116.647 42.1479 116.255 42.5838 115.908 43.0614L118.124 44.673C118.36 44.3484 118.624 44.0552 118.917 43.7918L117.083 41.7551ZM118.355 43.5801C118.26 43.1375 118.222 42.7807 118.222 42.5H115.482C115.482 43.0214 115.552 43.5761 115.676 44.1543L118.355 43.5801ZM118.222 42.5C118.222 41.6742 118.418 40.948 118.801 40.2919L116.434 38.9112C115.796 40.0051 115.482 41.2112 115.482 42.5H118.222ZM118.813 40.271C119.207 39.5659 119.729 39.0354 120.386 38.6522L119.005 36.2853C117.912 36.9229 117.048 37.8143 116.422 38.9321L118.813 40.271ZM120.4 38.6436C121.1 38.2237 121.841 38.0185 122.648 38.0185V35.2784C121.341 35.2784 120.114 35.62 118.99 36.2939L120.4 38.6436ZM122.648 38.0185C123.456 38.0185 124.169 38.2233 124.821 38.6306L126.273 36.3069C125.175 35.6205 123.956 35.2784 122.648 35.2784V38.0185ZM124.877 38.6641C125.568 39.0511 126.097 39.58 126.484 40.271L128.875 38.9321C128.241 37.8002 127.348 36.9072 126.216 36.2734L124.877 38.6641ZM126.518 40.3277C126.925 40.9793 127.13 41.6928 127.13 42.5H129.87C129.87 41.1926 129.528 39.9738 128.841 38.8754L126.518 40.3277ZM127.13 42.5C127.13 43.1089 127.007 43.6828 126.758 44.2347L129.257 45.3591C129.665 44.4526 129.87 43.4953 129.87 42.5H127.13ZM126.745 44.2652C126.533 44.7697 126.211 45.2327 125.758 45.6567L127.632 47.6558C128.347 46.986 128.9 46.2094 129.271 45.3285L126.745 44.2652ZM125.727 47.625C126.152 48.0503 126.672 48.3522 127.273 48.4859L127.868 45.811C127.813 45.7988 127.749 45.7726 127.664 45.6875L125.727 47.625ZM127.273 48.4859C127.913 48.6281 128.542 48.5417 129.118 48.3111L128.101 45.767C127.948 45.8281 127.884 45.8146 127.868 45.811L127.273 48.4859ZM129.136 48.3037C129.907 47.9824 130.482 47.4074 130.804 46.6363L128.274 45.5824C128.231 45.6864 128.186 45.7311 128.082 45.7744L129.136 48.3037ZM130.818 46.6012C131.117 45.8243 131.132 45.0025 130.804 44.2152L128.274 45.2691C128.311 45.3568 128.326 45.4466 128.26 45.6176L130.818 46.6012ZM130.839 44.3089C130.759 44.0692 130.646 43.8509 130.515 43.6541L128.235 45.174C128.25 45.196 128.246 45.1964 128.239 45.1754L130.839 44.3089ZM130.695 44.7807C130.907 44.0168 131.018 43.2553 131.018 42.5H128.278C128.278 42.9843 128.207 43.4989 128.055 44.0474L130.695 44.7807ZM131.018 42.5C131.018 41.6314 130.888 40.7813 130.627 39.9546L128.014 40.7798C128.19 41.3385 128.278 41.9103 128.278 42.5H131.018ZM128.944 41.6845C129.499 41.8432 129.982 42.1166 130.407 42.5151L132.281 40.5161C131.539 39.8209 130.673 39.3287 129.697 39.0498L128.944 41.6845ZM130.473 42.5732C130.931 42.9504 131.275 43.4009 131.516 43.9372L134.015 42.8128C133.6 41.8908 132.996 41.1017 132.215 40.458L130.473 42.5732ZM131.5 43.8988C131.83 44.697 131.894 45.4807 131.705 46.2902L134.373 46.9129C134.695 45.5349 134.576 44.1675 134.032 42.8512L131.5 43.8988ZM131.707 46.2801C131.52 47.0544 131.128 47.7006 130.499 48.2474L132.297 50.3151C133.346 49.4035 134.047 48.2633 134.371 46.923L131.707 46.2801ZM130.137 49.8153L133.91 58.7294L136.434 57.6612L132.66 48.7472L130.137 49.8153ZM127.155 46.4371C127.721 45.8237 128.145 45.115 128.425 44.3232L125.841 43.4112C125.683 43.8589 125.451 44.244 125.142 44.5785L127.155 46.4371ZM126.576 42.6152C125.964 42.8876 125.489 43.3373 125.17 43.9128L127.565 45.2435C127.61 45.1627 127.646 45.1385 127.689 45.1192L126.576 42.6152ZM125.142 43.9654C124.9 44.4486 124.778 44.9684 124.778 45.5078H127.518C127.518 45.391 127.543 45.291 127.593 45.1908L125.142 43.9654Z" fill="black" style="fill:black;fill-opacity:1;" mask="url(#path-6-outside-1_1048_262)"/>
</svg>
