<svg width="101" height="66" viewBox="0 0 101 66" fill="none" xmlns="http://www.w3.org/2000/svg">
<path d="M8.98182 66L0 54.4722C5.98788 51.4319 11.2589 47.8848 15.8131 43.8311C20.3672 39.7774 23.3612 35.8081 24.7949 31.9232C21.4214 32.0921 18.301 31.5432 15.4335 30.2764C12.6504 29.094 10.4155 27.3205 8.72881 24.9559C7.12642 22.5067 6.32522 19.6775 6.32522 16.4683C6.32522 11.6545 7.92762 7.72745 11.1324 4.68714C14.4215 1.56238 18.5118 0 23.4033 0C29.0539 0 33.5659 1.90019 36.9393 5.70058C40.3971 9.41651 42.126 14.6104 42.126 21.2822C42.126 26.2649 40.861 31.3743 38.3309 36.6104C35.8851 41.9309 32.2165 47.0825 27.325 52.0653C22.4335 57.048 16.3191 61.6929 8.98182 66Z" fill="#FEE932" style="fill:#FEE932;fill:color(display-p3 0.9953 0.9155 0.1976);fill-opacity:1;"/>
<path d="M67.8558 66L58.874 54.4722C64.8619 51.4319 70.1329 47.8848 74.6871 43.8311C79.2412 39.7774 82.2352 35.8081 83.6689 31.9232C80.2954 32.0921 77.175 31.5432 74.3076 30.2764C71.5245 29.094 69.2895 27.3205 67.6028 24.9559C66.0004 22.5067 65.1992 19.6775 65.1992 16.4683C65.1992 11.6545 66.8016 7.72745 70.0064 4.68714C73.2955 1.56238 77.3858 0 82.2773 0C87.9279 0 92.4399 1.90019 95.8133 5.70058C99.2711 9.41651 101 14.6104 101 21.2822C101 26.2649 99.735 31.3743 97.2049 36.6104C94.7591 41.9309 91.0905 47.0825 86.199 52.0653C81.3075 57.048 75.1931 61.6929 67.8558 66Z" fill="#FEE932" style="fill:#FEE932;fill:color(display-p3 0.9953 0.9155 0.1976);fill-opacity:1;"/>
</svg>
