<svg width="24" height="24" viewBox="0 0 24 24" fill="none" xmlns="http://www.w3.org/2000/svg">
<path fill-rule="evenodd" clip-rule="evenodd" d="M17.6878 3.2777H6.31219V20.7223H17.6878V3.2777ZM6.31219 1C5.0352 1 4 2.01976 4 3.2777V20.7223C4 21.9802 5.0352 23 6.31219 23H17.6878C18.9648 23 20 21.9802 20 20.7223V3.2777C20 2.01976 18.9648 1 17.6878 1H6.31219Z" fill="#262626" style="fill:#262626;fill:color(display-p3 0.1500 0.1500 0.1500);fill-opacity:1;"/>
<path fill-rule="evenodd" clip-rule="evenodd" d="M13.679 6.10704C14.2709 6.10704 14.7508 5.63433 14.7508 5.05123C14.7508 4.46812 14.2709 3.99542 13.679 3.99542H10.321C9.7291 3.99542 9.24924 4.46812 9.24924 5.05123C9.24924 5.63433 9.7291 6.10704 10.321 6.10704H13.679Z" fill="#262626" style="fill:#262626;fill:color(display-p3 0.1500 0.1500 0.1500);fill-opacity:1;"/>
</svg>
