<svg width="32" height="32" viewBox="0 0 32 32" fill="none" xmlns="http://www.w3.org/2000/svg">
<circle cx="16" cy="16" r="16" fill="#FCF3A0" style="fill:#FCF3A0;fill:color(display-p3 0.9882 0.9529 0.6275);fill-opacity:1;"/>
<path d="M15.776 21.44C15.2587 21.44 14.752 21.3813 14.256 21.264C13.76 21.1467 13.312 20.9893 12.912 20.792C12.5173 20.5893 12.2133 20.3627 12 20.112L12.928 17.6C13.2 17.9573 13.5787 18.2427 14.064 18.456C14.5493 18.664 15.0507 18.768 15.568 18.768C15.8827 18.768 16.16 18.72 16.4 18.624C16.64 18.5227 16.8267 18.384 16.96 18.208C17.0987 18.032 17.168 17.8293 17.168 17.6C17.168 17.216 17.0267 16.92 16.744 16.712C16.4667 16.504 16.112 16.4 15.68 16.4C15.4827 16.4 15.272 16.416 15.048 16.448C14.8293 16.48 14.608 16.528 14.384 16.592L13.552 14.608L16.096 12.576H12.16V10H19.648V12.368L17.376 14.576C17.824 14.64 18.2587 14.8053 18.68 15.072C19.1013 15.3387 19.448 15.704 19.72 16.168C19.992 16.632 20.128 17.1947 20.128 17.856C20.128 18.544 19.9413 19.1573 19.568 19.696C19.2 20.2347 18.688 20.6613 18.032 20.976C17.3813 21.2853 16.6293 21.44 15.776 21.44Z" fill="#6D6A53" style="fill:#6D6A53;fill:color(display-p3 0.4262 0.4149 0.3256);fill-opacity:1;"/>
</svg>
