<svg width="16" height="22" viewBox="0 0 16 22" fill="none" xmlns="http://www.w3.org/2000/svg">
<path fill-rule="evenodd" clip-rule="evenodd" d="M13.6878 2.2777H2.31219V19.7223H13.6878V2.2777ZM2.31219 0C1.0352 0 0 1.01976 0 2.2777V19.7223C0 20.9802 1.0352 22 2.31219 22H13.6878C14.9648 22 16 20.9802 16 19.7223V2.2777C16 1.01976 14.9648 0 13.6878 0H2.31219Z" fill="#666666" style="fill:#666666;fill:color(display-p3 0.4000 0.4000 0.4000);fill-opacity:1;"/>
<path fill-rule="evenodd" clip-rule="evenodd" d="M9.67896 5.10704C10.2709 5.10704 10.7508 4.63433 10.7508 4.05123C10.7508 3.46812 10.2709 2.99542 9.67896 2.99542H6.32104C5.7291 2.99542 5.24924 3.46812 5.24924 4.05123C5.24924 4.63433 5.7291 5.10704 6.32104 5.10704H9.67896Z" fill="#666666" style="fill:#666666;fill:color(display-p3 0.4000 0.4000 0.4000);fill-opacity:1;"/>
</svg>
