<svg width="200" height="130" viewBox="0 0 200 130" fill="none" xmlns="http://www.w3.org/2000/svg">
<rect x="43" y="31" width="26" height="78" fill="#D9D9D9" stroke="black" style="fill:#D9D9D9;fill:color(display-p3 0.8510 0.8510 0.8510);fill-opacity:1;stroke:black;stroke-opacity:1;" stroke-width="1.61391" stroke-linejoin="round"/>
<rect x="33" y="31" width="26" height="78" fill="#FCF3A0" stroke="black" style="fill:#FCF3A0;fill:color(display-p3 0.9882 0.9529 0.6275);fill-opacity:1;stroke:black;stroke-opacity:1;" stroke-width="1.61391" stroke-linejoin="round"/>
<path d="M95 30.4634L109 23V101.537L95 109V30.4634Z" fill="#D9D9D9" stroke="black" style="fill:#D9D9D9;fill:color(display-p3 0.8510 0.8510 0.8510);fill-opacity:1;stroke:black;stroke-opacity:1;" stroke-width="1.61391" stroke-linejoin="round"/>
<g style="mix-blend-mode:overlay">
<path d="M33 76L59 50V68.5L33 94.5V76Z" fill="white" fill-opacity="0.75" style="fill:white;fill-opacity:0.75;"/>
<path d="M33 66L59 40V34L56.5 36.5L33 60V66Z" fill="white" fill-opacity="0.75" style="fill:white;fill-opacity:0.75;"/>
</g>
<rect x="24" y="31" width="25" height="78" fill="#FCF3A0" stroke="black" style="fill:#FCF3A0;fill:color(display-p3 0.9882 0.9529 0.6275);fill-opacity:1;stroke:black;stroke-opacity:1;" stroke-width="1.61391" stroke-linejoin="round"/>
<rect x="59" y="31" width="10" height="66" fill="#D9D9D9" stroke="black" style="fill:#D9D9D9;fill:color(display-p3 0.8510 0.8510 0.8510);fill-opacity:1;stroke:black;stroke-opacity:1;" stroke-width="1.61391" stroke-linejoin="round"/>
<g style="mix-blend-mode:overlay">
<path d="M24 75L50 49V67.5L24 93.5V75Z" fill="white" fill-opacity="0.75" style="fill:white;fill-opacity:0.75;"/>
<path d="M24 65L50 39V33L47.5 35.5L24 59V65Z" fill="white" fill-opacity="0.75" style="fill:white;fill-opacity:0.75;"/>
</g>
<path d="M31 23H109L95 31H18L31 23Z" fill="#D9D9D9" stroke="black" style="fill:#D9D9D9;fill:color(display-p3 0.8510 0.8510 0.8510);fill-opacity:1;stroke:black;stroke-opacity:1;" stroke-width="1.61391" stroke-linejoin="round"/>
<rect x="18" y="31" width="26" height="78" fill="#FCF3A0" stroke="black" style="fill:#FCF3A0;fill:color(display-p3 0.9882 0.9529 0.6275);fill-opacity:1;stroke:black;stroke-opacity:1;" stroke-width="1.61391" stroke-linejoin="round"/>
<rect x="69" y="31" width="26" height="13" fill="#D9D9D9" stroke="black" style="fill:#D9D9D9;fill:color(display-p3 0.8510 0.8510 0.8510);fill-opacity:1;stroke:black;stroke-opacity:1;" stroke-width="1.61391" stroke-linejoin="round"/>
<rect x="69" y="31" width="13" height="13" fill="#D9D9D9" stroke="black" style="fill:#D9D9D9;fill:color(display-p3 0.8510 0.8510 0.8510);fill-opacity:1;stroke:black;stroke-opacity:1;" stroke-width="1.61391" stroke-linejoin="round"/>
<rect x="69" y="44" width="26" height="13" fill="#D9D9D9" stroke="black" style="fill:#D9D9D9;fill:color(display-p3 0.8510 0.8510 0.8510);fill-opacity:1;stroke:black;stroke-opacity:1;" stroke-width="1.61391" stroke-linejoin="round"/>
<rect x="69" y="57" width="26" height="13" fill="#D9D9D9" stroke="black" style="fill:#D9D9D9;fill:color(display-p3 0.8510 0.8510 0.8510);fill-opacity:1;stroke:black;stroke-opacity:1;" stroke-width="1.61391" stroke-linejoin="round"/>
<rect x="69" y="70" width="26" height="13" fill="#D9D9D9" stroke="black" style="fill:#D9D9D9;fill:color(display-p3 0.8510 0.8510 0.8510);fill-opacity:1;stroke:black;stroke-opacity:1;" stroke-width="1.61391" stroke-linejoin="round"/>
<rect x="69" y="83" width="26" height="13" fill="#D9D9D9" stroke="black" style="fill:#D9D9D9;fill:color(display-p3 0.8510 0.8510 0.8510);fill-opacity:1;stroke:black;stroke-opacity:1;" stroke-width="1.61391" stroke-linejoin="round"/>
<rect x="69" y="83" width="26" height="26" fill="#D9D9D9" stroke="black" style="fill:#D9D9D9;fill:color(display-p3 0.8510 0.8510 0.8510);fill-opacity:1;stroke:black;stroke-opacity:1;" stroke-width="1.61391" stroke-linejoin="round"/>
<rect x="84" y="83" width="11" height="14" fill="#D9D9D9" stroke="black" style="fill:#D9D9D9;fill:color(display-p3 0.8510 0.8510 0.8510);fill-opacity:1;stroke:black;stroke-opacity:1;" stroke-width="1.61391" stroke-linejoin="round"/>
<path d="M69 82.5L85 70" stroke="black" style="stroke:black;stroke-opacity:1;" stroke-width="1.61"/>
<path d="M69 108.5L85 96" stroke="black" style="stroke:black;stroke-opacity:1;" stroke-width="1.61"/>
<path d="M69 69.5L85 57" stroke="black" style="stroke:black;stroke-opacity:1;" stroke-width="1.61"/>
<path d="M69 56.5L85 44" stroke="black" style="stroke:black;stroke-opacity:1;" stroke-width="1.61"/>
<path d="M82 44.1562L95 34" stroke="black" style="stroke:black;stroke-opacity:1;" stroke-width="1.61"/>
<path d="M69 44.1562L82 34" stroke="black" style="stroke:black;stroke-opacity:1;" stroke-width="1.61"/>
<g style="mix-blend-mode:overlay">
<path d="M18 75L44 49V67.5L18 93.5V75Z" fill="white" fill-opacity="0.75" style="fill:white;fill-opacity:0.75;"/>
<path d="M18 65L44 39V33L41.5 35.5L18 59V65Z" fill="white" fill-opacity="0.75" style="fill:white;fill-opacity:0.75;"/>
</g>
<path d="M167 80.4634L181 73V99.5366L167 107V80.4634Z" fill="#D9D9D9" stroke="black" style="fill:#D9D9D9;fill:color(display-p3 0.8510 0.8510 0.8510);fill-opacity:1;stroke:black;stroke-opacity:1;" stroke-width="1.61391" stroke-linejoin="round"/>
<path d="M129 73H181L167 81H116L129 73Z" fill="#D9D9D9" stroke="black" style="fill:#D9D9D9;fill:color(display-p3 0.8510 0.8510 0.8510);fill-opacity:1;stroke:black;stroke-opacity:1;" stroke-width="1.61391" stroke-linejoin="round"/>
<rect x="116" y="81" width="26" height="26" fill="#FCF3A0" stroke="black" style="fill:#FCF3A0;fill:color(display-p3 0.9882 0.9529 0.6275);fill-opacity:1;stroke:black;stroke-opacity:1;" stroke-width="1.61391" stroke-linejoin="round"/>
<rect x="116" y="81" width="26" height="13" fill="#FCF3A0" stroke="black" style="fill:#FCF3A0;fill:color(display-p3 0.9882 0.9529 0.6275);fill-opacity:1;stroke:black;stroke-opacity:1;" stroke-width="1.61391" stroke-linejoin="round"/>
<rect x="142" y="81" width="25" height="26" fill="#FCF3A0" stroke="black" style="fill:#FCF3A0;fill:color(display-p3 0.9882 0.9529 0.6275);fill-opacity:1;stroke:black;stroke-opacity:1;" stroke-width="1.61391" stroke-linejoin="round"/>
</svg>
