<svg width="24" height="24" viewBox="0 0 24 24" fill="none" xmlns="http://www.w3.org/2000/svg">
<path d="M22.3625 5.29925C21.9532 3.84411 21.143 2.69467 19.9562 1.88151C18.4585 0.852315 16.7356 0.489549 15.2481 0.267406C13.1897 -0.0382949 11.3257 -0.081093 9.54765 0.134936C7.88211 0.338737 6.62784 0.662779 5.48406 1.18655C3.24152 2.2137 1.89517 3.87468 1.48391 6.1226C1.28339 7.21497 1.14834 8.20137 1.07059 9.14293C0.890533 11.3195 1.05422 13.2454 1.56984 15.0307C2.07319 16.7712 2.95097 18.0144 4.25435 18.8316C4.58582 19.0395 5.01141 19.1903 5.42268 19.335C5.65593 19.4165 5.88305 19.496 6.06925 19.5836C6.24112 19.6631 6.24112 19.6774 6.23908 19.82C6.22475 21.0571 6.23908 23.4823 6.23908 23.4823L6.24317 24H7.1762L7.32761 23.8533C7.42787 23.7595 9.73998 21.534 10.5646 20.6373L10.6771 20.513C10.8183 20.3499 10.8183 20.3499 10.9636 20.3479C12.0766 20.3255 13.2143 20.2827 14.3437 20.2215C15.7126 20.1482 17.2983 20.0157 18.792 19.3961C20.1588 18.8275 21.1573 17.9247 21.7568 16.7141C22.3829 15.4506 22.7533 14.0831 22.8924 12.5321C23.1379 9.80528 22.964 7.43915 22.3625 5.29925ZM17.4395 15.903C17.0958 16.4594 16.5842 16.8466 15.9806 17.0973C15.5387 17.2807 15.0885 17.242 14.6527 17.0585C11.0045 15.5199 8.14197 13.0967 6.25135 9.61167C5.86055 8.89429 5.59046 8.1117 5.27945 7.35356C5.21602 7.19867 5.22011 7.01525 5.19147 6.84406C5.21807 5.61921 6.16133 4.92833 7.11481 4.72045C7.47902 4.63893 7.80231 4.76733 8.0724 5.02615C8.82128 5.73538 9.4126 6.56077 9.85866 7.48603C10.053 7.89159 9.96505 8.25028 9.63358 8.5519C9.56402 8.61508 9.4924 8.67215 9.4167 8.72921C8.65963 9.29578 8.54914 9.7258 8.95223 10.5797C9.63972 12.0328 10.7815 13.009 12.2567 13.6143C12.6455 13.7733 13.0117 13.6938 13.3084 13.3799C13.3493 13.3392 13.3943 13.2984 13.423 13.2495C14.0041 12.2835 14.8491 12.3793 15.6287 12.9295C16.1402 13.2923 16.6374 13.6755 17.1428 14.0443C17.9142 14.6089 17.9081 15.1387 17.4395 15.903ZM12.6005 6.26119C12.4286 6.26119 12.2567 6.27545 12.0869 6.30398C11.8004 6.35086 11.5324 6.15929 11.4833 5.87396C11.4362 5.59068 11.6285 5.32166 11.915 5.27479C12.1401 5.23607 12.3713 5.21773 12.6005 5.21773C14.8696 5.21773 16.7152 7.05601 16.7152 9.31616C16.7152 9.54645 16.6968 9.77675 16.6579 9.99889C16.6149 10.2536 16.3939 10.435 16.1423 10.435C16.1136 10.435 16.085 10.433 16.0543 10.4269C15.7699 10.38 15.5775 10.111 15.6246 9.8277C15.6533 9.66058 15.6676 9.48939 15.6676 9.31616C15.6676 7.63276 14.2905 6.26119 12.6005 6.26119ZM15.1438 9.39156C15.1438 9.67892 14.9085 9.91329 14.62 9.91329C14.3315 9.91329 14.0962 9.67892 14.0962 9.39156C14.0962 8.52949 13.3903 7.82637 12.5247 7.82637C12.2362 7.82637 12.0009 7.592 12.0009 7.30464C12.0009 7.01729 12.2362 6.78292 12.5247 6.78292C13.9693 6.78292 15.1438 7.95273 15.1438 9.39156ZM18.1352 10.5512C18.0799 10.7937 17.8631 10.9568 17.6237 10.9568C17.5848 10.9568 17.5459 10.9527 17.507 10.9445C17.2247 10.8793 17.0487 10.6001 17.1121 10.3189C17.1878 9.98666 17.2267 9.64224 17.2267 9.29578C17.2267 6.7605 15.154 4.696 12.6086 4.696C12.2608 4.696 11.915 4.73472 11.5815 4.81012C11.2991 4.87534 11.0188 4.69803 10.9554 4.41679C10.8899 4.13554 11.0679 3.85634 11.3503 3.79316C11.7595 3.69941 12.183 3.65254 12.6086 3.65254C15.7331 3.65254 18.2743 6.18374 18.2743 9.29578C18.2743 9.71968 18.2273 10.1416 18.1352 10.5512Z" fill="black" style="fill:black;fill-opacity:1;"/>
</svg>
