<svg width="158" height="75" viewBox="0 0 158 75" fill="none" xmlns="http://www.w3.org/2000/svg">
<path d="M136 44L94 67M10 58.5H140M25.5 51H155.5M59 44L17 67" stroke="#A7A7A7" style="stroke:#A7A7A7;stroke:color(display-p3 0.6544 0.6544 0.6544);stroke-opacity:1;" stroke-linecap="round" stroke-linejoin="round"/>
<path d="M119.244 11.165C118.918 11.165 118.597 11.1302 118.282 11.0605C117.966 10.9908 117.677 10.8973 117.413 10.78C117.152 10.659 116.942 10.5215 116.78 10.3675L117.237 9.2125C117.46 9.4325 117.748 9.6085 118.1 9.7405C118.452 9.8725 118.804 9.9385 119.156 9.9385C119.479 9.9385 119.759 9.88533 119.998 9.779C120.236 9.669 120.419 9.51683 120.548 9.3225C120.68 9.12817 120.746 8.90083 120.746 8.6405C120.746 8.2335 120.597 7.91817 120.3 7.6945C120.007 7.47083 119.618 7.359 119.134 7.359C118.995 7.359 118.848 7.36817 118.694 7.3865C118.54 7.40483 118.384 7.43417 118.227 7.4745L117.825 6.556L120.102 4.4825H116.852V3.3H121.763V4.389L119.613 6.4735C120.045 6.47717 120.451 6.56333 120.828 6.732C121.21 6.897 121.518 7.14633 121.752 7.48C121.987 7.81367 122.104 8.22983 122.104 8.7285C122.104 9.20883 121.981 9.63233 121.736 9.999C121.494 10.362 121.158 10.648 120.729 10.857C120.3 11.0623 119.805 11.165 119.244 11.165ZM123.732 11V3.3H126.218C126.992 3.3 127.676 3.46317 128.27 3.7895C128.864 4.11583 129.328 4.56867 129.661 5.148C129.995 5.72733 130.162 6.3965 130.162 7.1555C130.162 7.72017 130.066 8.239 129.876 8.712C129.685 9.18133 129.414 9.5865 129.062 9.9275C128.713 10.2685 128.297 10.5325 127.813 10.7195C127.333 10.9065 126.801 11 126.218 11H123.732ZM125.162 9.669H126.086C126.471 9.669 126.821 9.61217 127.137 9.4985C127.452 9.38483 127.723 9.21983 127.951 9.0035C128.182 8.78717 128.358 8.52317 128.479 8.2115C128.603 7.89983 128.666 7.54783 128.666 7.1555C128.666 6.62383 128.558 6.171 128.341 5.797C128.129 5.41933 127.828 5.1315 127.439 4.9335C127.054 4.73183 126.603 4.631 126.086 4.631H125.162V9.669Z" fill="#2F2720" style="fill:#2F2720;fill:color(display-p3 0.1855 0.1547 0.1263);fill-opacity:1;"/>
<path d="M109 31.4634L123 24V50.5366L109 58V31.4634Z" fill="#D9D9D9" stroke="black" style="fill:#D9D9D9;fill:color(display-p3 0.8510 0.8510 0.8510);fill-opacity:1;stroke:black;stroke-opacity:1;" stroke-width="1.61391" stroke-linejoin="round"/>
<path d="M45 24H123L109 32H32L45 24Z" fill="#D9D9D9" stroke="black" style="fill:#D9D9D9;fill:color(display-p3 0.8510 0.8510 0.8510);fill-opacity:1;stroke:black;stroke-opacity:1;" stroke-width="1.61391" stroke-linejoin="round"/>
<rect x="32" y="32" width="26" height="26" fill="#FCF3A0" stroke="black" style="fill:#FCF3A0;fill:color(display-p3 0.9882 0.9529 0.6275);fill-opacity:1;stroke:black;stroke-opacity:1;" stroke-width="1.61391" stroke-linejoin="round"/>
<rect x="58" y="32" width="26" height="26" fill="#FCF3A0" stroke="black" style="fill:#FCF3A0;fill:color(display-p3 0.9882 0.9529 0.6275);fill-opacity:1;stroke:black;stroke-opacity:1;" stroke-width="1.61391" stroke-linejoin="round"/>
<rect x="58" y="32" width="26" height="13" fill="#FCF3A0" stroke="black" style="fill:#FCF3A0;fill:color(display-p3 0.9882 0.9529 0.6275);fill-opacity:1;stroke:black;stroke-opacity:1;" stroke-width="1.61391" stroke-linejoin="round"/>
<rect x="84" y="32" width="25" height="26" fill="#FCF3A0" stroke="black" style="fill:#FCF3A0;fill:color(display-p3 0.9882 0.9529 0.6275);fill-opacity:1;stroke:black;stroke-opacity:1;" stroke-width="1.61391" stroke-linejoin="round"/>
<path d="M135.263 9.60084C135.043 9.76714 134.999 10.0807 135.165 10.3011L137.875 13.8935C138.042 14.114 138.355 14.1579 138.576 13.9916C138.796 13.8253 138.84 13.5118 138.674 13.2913L136.265 10.098L139.458 7.6891C139.679 7.5228 139.722 7.20927 139.556 6.98882C139.39 6.76837 139.076 6.72448 138.856 6.89078L135.263 9.60084ZM144.5 13.5905C144.5 13.7092 144.441 13.8847 144.197 14.118C143.953 14.3517 143.566 14.601 143.022 14.8532C141.936 15.3562 140.334 15.822 138.314 16.2178C134.282 17.0079 128.691 17.5 122.5 17.5V18.5C128.735 18.5 134.394 18.005 138.506 17.1991C140.558 16.797 142.25 16.3126 143.442 15.7605C144.036 15.4851 144.533 15.1806 144.889 14.8402C145.244 14.4995 145.5 14.0805 145.5 13.5905H144.5ZM122.5 17.5C116.309 17.5 110.718 17.0079 106.686 16.2178C104.666 15.822 103.064 15.3562 101.978 14.8532C101.434 14.601 101.047 14.3517 100.803 14.118C100.559 13.8847 100.5 13.7092 100.5 13.5905H99.5C99.5 14.0805 99.7555 14.4995 100.111 14.8402C100.467 15.1806 100.964 15.4851 101.558 15.7605C102.75 16.3126 104.442 16.797 106.494 17.1991C110.606 18.005 116.265 18.5 122.5 18.5V17.5ZM100.5 13.5905C100.5 13.446 100.591 13.2153 100.979 12.9108C101.36 12.6127 101.95 12.3066 102.75 12.0085C104.346 11.4141 106.664 10.8928 109.505 10.4952L109.366 9.50483C106.495 9.90686 104.095 10.4405 102.401 11.0713C101.557 11.3857 100.859 11.7348 100.363 12.1237C99.8745 12.5063 99.5 12.9946 99.5 13.5905H100.5ZM135.495 10.4952C138.336 10.8928 140.654 11.4141 142.25 12.0085C143.05 12.3066 143.64 12.6127 144.021 12.9108C144.409 13.2153 144.5 13.446 144.5 13.5905H145.5C145.5 12.9946 145.126 12.5063 144.637 12.1237C144.141 11.7348 143.443 11.3857 142.599 11.0713C140.905 10.4405 138.505 9.90686 135.634 9.50483L135.495 10.4952Z" fill="black" style="fill:black;fill-opacity:1;"/>
</svg>
