<svg width="32" height="32" viewBox="0 0 32 32" fill="none" xmlns="http://www.w3.org/2000/svg">
<circle cx="16" cy="16" r="16" fill="#FCF3A0" style="fill:#FCF3A0;fill:color(display-p3 0.9882 0.9529 0.6275);fill-opacity:1;"/>
<path d="M11.6724 21.0001V18.9521L14.0244 16.8721C14.7391 16.2374 15.2857 15.7254 15.6644 15.3361C16.0484 14.9414 16.3097 14.6081 16.4484 14.3361C16.5924 14.0587 16.6644 13.7787 16.6644 13.4961C16.6644 13.0801 16.5311 12.7654 16.2644 12.5521C15.9977 12.3387 15.6084 12.2321 15.0964 12.2321C14.6111 12.2321 14.1471 12.3361 13.7044 12.5441C13.2617 12.7467 12.8511 13.0481 12.4724 13.4481L11.4004 11.1121C11.9444 10.6214 12.5684 10.2401 13.2724 9.96806C13.9817 9.69606 14.6911 9.56006 15.4004 9.56006C16.2697 9.56006 17.0191 9.70939 17.6484 10.0081C18.2831 10.3014 18.7711 10.7121 19.1124 11.2401C19.4537 11.7681 19.6244 12.3761 19.6244 13.0641C19.6244 13.5174 19.5337 13.9574 19.3524 14.3841C19.1764 14.8054 18.8644 15.2801 18.4164 15.8081C17.9737 16.3307 17.3524 16.9734 16.5524 17.7361L15.8644 18.3921H19.9284V21.0001H11.6724Z" fill="#6D6A53" style="fill:#6D6A53;fill:color(display-p3 0.4262 0.4149 0.3256);fill-opacity:1;"/>
</svg>
