<svg width="337" height="76" viewBox="0 0 337 76" fill="none" xmlns="http://www.w3.org/2000/svg">
<path d="M119.614 66.4732V54.9289H121.581L126.93 62.5387L125.987 62.5622L131.1 54.9289H133.043V66.4732H131.029L131.053 57.5794L131.453 57.7561L127.071 64.0465H125.598L121.04 57.7325L121.428 57.5558L121.452 66.4732H119.614Z" fill="#111111" style="fill:#111111;fill:color(display-p3 0.0667 0.0667 0.0667);fill-opacity:1;"/>
<path d="M141.973 66.8266C140.748 66.8266 139.668 66.5713 138.733 66.0609C137.799 65.5504 137.068 64.8397 136.542 63.9287C136.016 63.0099 135.753 61.9418 135.753 60.7246C135.753 59.845 135.902 59.0283 136.201 58.2744C136.507 57.5205 136.931 56.8686 137.473 56.3189C138.023 55.7692 138.663 55.3412 139.393 55.0349C140.131 54.7286 140.932 54.5755 141.796 54.5755C142.731 54.5755 143.563 54.7404 144.293 55.0702C145.032 55.4001 145.64 55.8634 146.119 56.4603C146.606 57.0493 146.956 57.7443 147.168 58.5453C147.38 59.3385 147.423 60.2023 147.297 61.1369H137.897C137.873 61.9065 138.031 62.5819 138.368 63.163C138.706 63.7363 139.193 64.1839 139.829 64.5059C140.473 64.8279 141.235 64.9889 142.114 64.9889C142.758 64.9889 143.386 64.8868 143.999 64.6826C144.612 64.4784 145.153 64.1761 145.625 63.7756L146.543 65.3894C146.166 65.6957 145.719 65.9588 145.201 66.1787C144.69 66.3907 144.156 66.5517 143.598 66.6616C143.041 66.7716 142.499 66.8266 141.973 66.8266ZM138.015 59.4524H145.13C145.098 58.4786 144.796 57.7207 144.223 57.1788C143.65 56.6291 142.829 56.3542 141.761 56.3542C140.724 56.3542 139.868 56.6291 139.193 57.1788C138.517 57.7207 138.125 58.4786 138.015 59.4524Z" fill="#111111" style="fill:#111111;fill:color(display-p3 0.0667 0.0667 0.0667);fill-opacity:1;"/>
<path d="M155.659 66.8266C154.686 66.8266 153.81 66.6616 153.032 66.3318C152.255 66.002 151.591 65.519 151.042 64.8829C150.5 64.2468 150.084 63.4693 149.793 62.5505C149.51 61.6316 149.369 60.5832 149.369 59.4052C149.369 58.1173 149.463 56.9589 149.652 55.9302C149.84 54.9014 150.146 54.01 150.57 53.2561C150.995 52.4944 151.552 51.87 152.243 51.3831C152.942 50.8884 153.798 50.535 154.811 50.3229L160.336 49.1567L160.713 51.0886L155.341 52.1842C154.383 52.3962 153.633 52.7339 153.091 53.1972C152.55 53.6527 152.153 54.2299 151.902 54.9289C151.65 55.6278 151.485 56.4446 151.407 57.3791C151.902 56.6487 152.53 56.0637 153.292 55.6239C154.061 55.1763 154.964 54.9524 156.001 54.9524C157.116 54.9524 158.094 55.2194 158.934 55.7535C159.782 56.2796 160.446 56.9864 160.925 57.8738C161.404 58.7534 161.644 59.7272 161.644 60.7953C161.644 61.6199 161.502 62.3973 161.22 63.1277C160.937 63.858 160.528 64.502 159.994 65.0596C159.46 65.6093 158.828 66.0412 158.098 66.3554C157.367 66.6695 156.555 66.8266 155.659 66.8266ZM155.601 64.8711C156.339 64.8711 156.998 64.7062 157.58 64.3763C158.161 64.0387 158.616 63.5675 158.946 62.9628C159.276 62.3581 159.441 61.6434 159.441 60.8188C159.441 59.9864 159.276 59.2678 158.946 58.6631C158.616 58.0584 158.161 57.5911 157.58 57.2613C157.006 56.9315 156.347 56.7665 155.601 56.7665C154.854 56.7665 154.191 56.9315 153.61 57.2613C153.029 57.5911 152.573 58.0584 152.243 58.6631C151.913 59.2678 151.748 59.9864 151.748 60.8188C151.748 61.6434 151.913 62.3581 152.243 62.9628C152.573 63.5675 153.029 64.0387 153.61 64.3763C154.191 64.7062 154.854 64.8711 155.601 64.8711Z" fill="#111111" style="fill:#111111;fill:color(display-p3 0.0667 0.0667 0.0667);fill-opacity:1;"/>
<path d="M163.914 66.6499L163.113 64.6591C163.921 64.4549 164.51 64.129 164.88 63.6813C165.249 63.2258 165.484 62.5858 165.586 61.7612C165.688 60.9366 165.739 59.8646 165.739 58.5453V54.9289H174.845V66.4732H172.678V56.7665H167.789V58.5453C167.789 59.8018 167.734 60.8934 167.624 61.8201C167.522 62.7389 167.33 63.5164 167.047 64.1525C166.772 64.7886 166.38 65.3109 165.869 65.7192C165.366 66.1198 164.715 66.43 163.914 66.6499Z" fill="#111111" style="fill:#111111;fill:color(display-p3 0.0667 0.0667 0.0667);fill-opacity:1;"/>
<path d="M178.583 66.4732V54.9289H180.75V66.4732H178.583ZM179.666 52.7496C179.258 52.7496 178.905 52.6122 178.606 52.3373C178.308 52.0624 178.159 51.713 178.159 51.2889C178.159 50.8648 178.308 50.5193 178.606 50.2523C178.905 49.9774 179.258 49.84 179.666 49.84C180.083 49.84 180.436 49.9774 180.727 50.2523C181.025 50.5193 181.174 50.8648 181.174 51.2889C181.174 51.713 181.025 52.0624 180.727 52.3373C180.436 52.6122 180.083 52.7496 179.666 52.7496Z" fill="#111111" style="fill:#111111;fill:color(display-p3 0.0667 0.0667 0.0667);fill-opacity:1;"/>
<path d="M190.386 66.4732V54.9289H195.687C196.974 54.9289 198.011 55.1802 198.796 55.6828C199.59 56.1854 199.986 56.9315 199.986 57.921C199.986 58.3608 199.884 58.7573 199.68 59.1107C199.476 59.4641 199.185 59.7665 198.808 60.0178C198.431 60.2612 197.988 60.4419 197.477 60.5597L197.442 60.0885C198.423 60.2455 199.173 60.5911 199.692 61.1251C200.218 61.6513 200.481 62.3109 200.481 63.1041C200.481 63.8031 200.296 64.4038 199.927 64.9064C199.566 65.409 199.048 65.7978 198.372 66.0726C197.697 66.3397 196.892 66.4732 195.957 66.4732H190.386ZM192.494 64.7886H195.663C196.511 64.7886 197.167 64.6473 197.63 64.3646C198.101 64.0818 198.337 63.6578 198.337 63.0923C198.337 62.5269 198.105 62.1068 197.642 61.8319C197.179 61.5492 196.519 61.4078 195.663 61.4078H192.164V59.7704H195.392C196.193 59.7704 196.813 59.6487 197.253 59.4052C197.693 59.1618 197.913 58.7573 197.913 58.1919C197.913 57.6343 197.693 57.2338 197.253 56.9904C196.821 56.7391 196.201 56.6134 195.392 56.6134H192.494V64.7886Z" fill="#111111" style="fill:#111111;fill:color(display-p3 0.0667 0.0667 0.0667);fill-opacity:1;"/>
<path d="M208.481 66.8266C207.319 66.8266 206.29 66.5556 205.395 66.0137C204.5 65.4719 203.801 64.7415 203.298 63.8227C202.795 62.896 202.544 61.8554 202.544 60.701C202.544 59.8372 202.689 59.0322 202.98 58.2861C203.27 57.5401 203.679 56.8922 204.205 56.3425C204.731 55.7849 205.356 55.353 206.078 55.0467C206.808 54.7325 207.609 54.5755 208.481 54.5755C209.643 54.5755 210.609 54.8189 211.379 55.3058C212.149 55.7927 212.749 56.4131 213.181 57.1671L212.863 57.6383V54.9289H214.842V66.4732H212.863V63.7638L213.181 64.2232C212.749 64.9771 212.149 65.6014 211.379 66.0962C210.609 66.5831 209.643 66.8266 208.481 66.8266ZM208.717 64.8711C209.486 64.8711 210.17 64.7023 210.766 64.3646C211.363 64.019 211.831 63.536 212.168 62.9156C212.514 62.2874 212.687 61.5492 212.687 60.701C212.687 59.845 212.514 59.1068 212.168 58.4864C211.831 57.8581 211.363 57.3752 210.766 57.0375C210.17 56.6998 209.486 56.5309 208.717 56.5309C207.947 56.5309 207.264 56.6998 206.667 57.0375C206.07 57.3752 205.599 57.8581 205.253 58.4864C204.908 59.1068 204.735 59.845 204.735 60.701C204.735 61.5492 204.908 62.2874 205.253 62.9156C205.599 63.536 206.07 64.019 206.667 64.3646C207.264 64.7023 207.947 64.8711 208.717 64.8711Z" fill="#111111" style="fill:#111111;fill:color(display-p3 0.0667 0.0667 0.0667);fill-opacity:1;"/>
<path d="M218.593 66.4732V54.9289H220.701V64.6355H226.014V54.9289H228.123V64.6355H233.436V54.9289H235.544V66.4732H218.593Z" fill="#111111" style="fill:#111111;fill:color(display-p3 0.0667 0.0667 0.0667);fill-opacity:1;"/>
<path d="M244.471 66.8266C243.277 66.8266 242.213 66.5478 241.279 65.9902C240.344 65.4326 239.61 64.6905 239.076 63.7638C238.542 62.8371 238.275 61.8162 238.275 60.701C238.275 59.8764 238.428 59.095 238.734 58.3568C239.041 57.6186 239.472 56.9668 240.03 56.4014C240.588 55.8281 241.243 55.3804 241.997 55.0585C242.751 54.7365 243.576 54.5755 244.471 54.5755C245.673 54.5755 246.741 54.8543 247.675 55.4119C248.61 55.9694 249.344 56.7116 249.878 57.6383C250.412 58.5649 250.679 59.5859 250.679 60.701C250.679 61.5256 250.526 62.307 250.22 63.0452C249.913 63.7834 249.481 64.4352 248.924 65.0007C248.366 65.5661 247.711 66.0137 246.957 66.3436C246.203 66.6656 245.374 66.8266 244.471 66.8266ZM244.471 64.8711C245.249 64.8711 245.936 64.7023 246.533 64.3646C247.137 64.019 247.612 63.536 247.958 62.9156C248.303 62.2874 248.476 61.5492 248.476 60.701C248.476 59.845 248.303 59.1068 247.958 58.4864C247.62 57.8581 247.149 57.3752 246.544 57.0375C245.94 56.6998 245.249 56.5309 244.471 56.5309C243.694 56.5309 243.002 56.6998 242.398 57.0375C241.801 57.3752 241.33 57.8581 240.984 58.4864C240.647 59.1068 240.478 59.845 240.478 60.701C240.478 61.5492 240.647 62.2874 240.984 62.9156C241.33 63.536 241.805 64.019 242.41 64.3646C243.014 64.7023 243.701 64.8711 244.471 64.8711Z" fill="#111111" style="fill:#111111;fill:color(display-p3 0.0667 0.0667 0.0667);fill-opacity:1;"/>
<path d="M253.403 66.4732V54.9289H255.571V66.4732H253.403ZM252.638 52.7614C252.245 52.7614 251.911 52.6279 251.636 52.3609C251.369 52.086 251.236 51.7405 251.236 51.3242C251.236 50.908 251.369 50.5664 251.636 50.2994C251.911 50.0324 252.245 49.8989 252.638 49.8989C253.03 49.8989 253.36 50.0324 253.627 50.2994C253.902 50.5664 254.039 50.908 254.039 51.3242C254.039 51.7405 253.902 52.086 253.627 52.3609C253.36 52.6279 253.03 52.7614 252.638 52.7614ZM256.337 52.7614C255.952 52.7614 255.622 52.6279 255.347 52.3609C255.08 52.086 254.946 51.7405 254.946 51.3242C254.946 50.908 255.08 50.5664 255.347 50.2994C255.622 50.0324 255.952 49.8989 256.337 49.8989C256.729 49.8989 257.059 50.0324 257.326 50.2994C257.601 50.5664 257.738 50.908 257.738 51.3242C257.738 51.7405 257.601 52.086 257.326 52.3609C257.059 52.6279 256.729 52.7614 256.337 52.7614Z" fill="#111111" style="fill:#111111;fill:color(display-p3 0.0667 0.0667 0.0667);fill-opacity:1;"/>
<path d="M265.206 66.4732V54.9289H267.173L272.522 62.5387L271.579 62.5622L276.692 54.9289H278.635V66.4732H276.621L276.644 57.5794L277.045 57.7561L272.663 64.0465H271.19L266.632 57.7325L267.02 57.5558L267.044 66.4732H265.206Z" fill="#111111" style="fill:#111111;fill:color(display-p3 0.0667 0.0667 0.0667);fill-opacity:1;"/>
<path d="M282.37 71.4207V54.9289H284.361V56.6605C284.84 56.048 285.44 55.5493 286.163 55.1645C286.893 54.7718 287.812 54.5755 288.919 54.5755C290.066 54.5755 291.075 54.8464 291.947 55.3883C292.819 55.9223 293.498 56.6527 293.985 57.5794C294.48 58.506 294.727 59.5466 294.727 60.701C294.727 61.5413 294.586 62.3345 294.303 63.0806C294.028 63.8188 293.631 64.4706 293.113 65.036C292.595 65.5936 291.978 66.0334 291.264 66.3554C290.557 66.6695 289.768 66.8266 288.896 66.8266C287.922 66.8266 287.07 66.6459 286.34 66.2847C285.617 65.9156 285.012 65.4326 284.526 64.8358V71.4207H282.37ZM288.531 64.8711C289.308 64.8711 289.995 64.7023 290.592 64.3646C291.197 64.019 291.668 63.536 292.006 62.9156C292.351 62.2874 292.524 61.5492 292.524 60.701C292.524 59.845 292.351 59.1068 292.006 58.4864C291.668 57.8581 291.197 57.3752 290.592 57.0375C289.995 56.6998 289.308 56.5309 288.531 56.5309C287.753 56.5309 287.062 56.6998 286.457 57.0375C285.861 57.3752 285.389 57.8581 285.044 58.4864C284.698 59.1068 284.526 59.845 284.526 60.701C284.526 61.5492 284.698 62.2874 285.044 62.9156C285.389 63.536 285.861 64.019 286.457 64.3646C287.062 64.7023 287.753 64.8711 288.531 64.8711Z" fill="#111111" style="fill:#111111;fill:color(display-p3 0.0667 0.0667 0.0667);fill-opacity:1;"/>
<path d="M297.44 66.4732V54.9289H299.607V66.4732H297.44ZM298.524 52.7496C298.115 52.7496 297.762 52.6122 297.463 52.3373C297.165 52.0624 297.016 51.713 297.016 51.2889C297.016 50.8648 297.165 50.5193 297.463 50.2523C297.762 49.9774 298.115 49.84 298.524 49.84C298.94 49.84 299.293 49.9774 299.584 50.2523C299.882 50.5193 300.031 50.8648 300.031 51.2889C300.031 51.713 299.882 52.0624 299.584 52.3373C299.293 52.6122 298.94 52.7496 298.524 52.7496Z" fill="#111111" style="fill:#111111;fill:color(display-p3 0.0667 0.0667 0.0667);fill-opacity:1;"/>
<path d="M303.537 66.4732V54.9289H305.704V66.4732H303.537ZM302.771 52.7614C302.378 52.7614 302.045 52.6279 301.77 52.3609C301.503 52.086 301.369 51.7405 301.369 51.3242C301.369 50.908 301.503 50.5664 301.77 50.2994C302.045 50.0324 302.378 49.8989 302.771 49.8989C303.164 49.8989 303.494 50.0324 303.761 50.2994C304.036 50.5664 304.173 50.908 304.173 51.3242C304.173 51.7405 304.036 52.086 303.761 52.3609C303.494 52.6279 303.164 52.7614 302.771 52.7614ZM306.47 52.7614C306.085 52.7614 305.755 52.6279 305.481 52.3609C305.214 52.086 305.08 51.7405 305.08 51.3242C305.08 50.908 305.214 50.5664 305.481 50.2994C305.755 50.0324 306.085 49.8989 306.47 49.8989C306.863 49.8989 307.193 50.0324 307.46 50.2994C307.734 50.5664 307.872 50.908 307.872 51.3242C307.872 51.7405 307.734 52.086 307.46 52.3609C307.193 52.6279 306.863 52.7614 306.47 52.7614Z" fill="#111111" style="fill:#111111;fill:color(display-p3 0.0667 0.0667 0.0667);fill-opacity:1;"/>
<path d="M119.326 37.2927V10.9058H126.941V20.2166H135.761V10.9058H143.376V37.2927H135.761V27.1526H126.941V37.2927H119.326Z" fill="#111111" style="fill:#111111;fill:color(display-p3 0.0667 0.0667 0.0667);fill-opacity:1;"/>
<path d="M146.204 37.2927L155.816 10.9058H164.863L174.438 37.2927H165.843L164.373 32.5807H156.042L154.572 37.2927H146.204ZM157.663 26.2856H162.714L160.227 18.7465L157.663 26.2856Z" fill="#111111" style="fill:#111111;fill:color(display-p3 0.0667 0.0667 0.0667);fill-opacity:1;"/>
<path d="M177.268 37.2927V10.9058H188.464C190.525 10.9058 192.322 11.2262 193.855 11.867C195.4 12.5078 196.594 13.4439 197.436 14.6753C198.29 15.8942 198.717 17.3768 198.717 19.1234C198.717 20.4051 198.491 21.5296 198.039 22.4972C197.586 23.4647 196.983 24.2814 196.229 24.9474C195.475 25.6133 194.646 26.1348 193.741 26.5118L200.263 37.2927H191.291L186.353 28.2081H184.883V37.2927H177.268ZM184.883 22.2145H187.672C188.715 22.2145 189.532 22.026 190.123 21.649C190.726 21.2721 191.027 20.6061 191.027 19.6511C191.027 18.6836 190.726 18.0177 190.123 17.6533C189.532 17.2763 188.728 17.0878 187.71 17.0878H184.883V22.2145Z" fill="#111111" style="fill:#111111;fill:color(display-p3 0.0667 0.0667 0.0667);fill-opacity:1;"/>
<path d="M203.736 37.2927V10.9058H213.311C216.126 10.9058 218.588 11.4649 220.699 12.5832C222.81 13.689 224.45 15.2345 225.619 17.2198C226.787 19.1925 227.372 21.4857 227.372 24.0992C227.372 26.072 227.039 27.8688 226.373 29.4897C225.707 31.1106 224.752 32.5054 223.508 33.6739C222.276 34.8299 220.8 35.722 219.078 36.3503C217.357 36.9786 215.435 37.2927 213.311 37.2927H203.736ZM211.351 30.2059H213.123C214.052 30.2059 214.894 30.0866 215.648 29.8478C216.415 29.5965 217.074 29.2196 217.627 28.7169C218.193 28.2018 218.626 27.5609 218.928 26.7945C219.229 26.028 219.38 25.1296 219.38 24.0992C219.38 22.7171 219.116 21.5736 218.588 20.6689C218.061 19.7642 217.326 19.092 216.383 18.6522C215.441 18.2124 214.354 17.9925 213.123 17.9925H211.351V30.2059Z" fill="#111111" style="fill:#111111;fill:color(display-p3 0.0667 0.0667 0.0667);fill-opacity:1;"/>
<path d="M244.262 37.8581C241.523 37.8581 239.098 37.3053 236.987 36.1995C234.888 35.0938 233.242 33.5231 232.048 31.4876C230.867 29.4394 230.277 27.0144 230.277 24.2123C230.277 22.1642 230.622 20.292 231.313 18.5957C232.004 16.8994 232.978 15.4355 234.235 14.2041C235.504 12.9727 236.999 12.0241 238.721 11.3581C240.442 10.6796 242.327 10.3403 244.375 10.3403C246.712 10.3403 248.634 10.6356 250.142 11.2262C251.65 11.8167 253.045 12.6523 254.327 13.7329L250.595 19.9904C249.916 19.2491 249.087 18.6962 248.107 18.3318C247.139 17.9548 246.059 17.7664 244.865 17.7664C243.797 17.7664 242.855 17.9172 242.038 18.2187C241.221 18.5077 240.53 18.9287 239.965 19.4815C239.412 20.0344 238.991 20.7003 238.702 21.4794C238.413 22.2584 238.268 23.1317 238.268 24.0992C238.268 25.4186 238.532 26.5494 239.06 27.4918C239.588 28.4342 240.348 29.163 241.34 29.6782C242.333 30.1808 243.533 30.4321 244.94 30.4321C246.021 30.4321 247.114 30.2625 248.22 29.9232C249.338 29.5839 250.406 29.0499 251.424 28.3211L254.892 34.6917C253.711 35.5964 252.247 36.3503 250.5 36.9534C248.754 37.5566 246.674 37.8581 244.262 37.8581Z" fill="#111111" style="fill:#111111;fill:color(display-p3 0.0667 0.0667 0.0667);fill-opacity:1;"/>
<path d="M270.109 37.8581C268.049 37.8581 266.151 37.5126 264.417 36.8215C262.683 36.1179 261.175 35.144 259.894 33.9001C258.625 32.6561 257.638 31.1986 256.935 29.5274C256.243 27.8562 255.898 26.0468 255.898 24.0992C255.898 22.1391 256.243 20.3234 256.935 18.6522C257.638 16.981 258.625 15.5235 259.894 14.2795C261.175 13.0356 262.683 12.068 264.417 11.377C266.151 10.6859 268.049 10.3403 270.109 10.3403C272.17 10.3403 274.061 10.6922 275.782 11.3958C277.516 12.0995 279.018 13.0795 280.287 14.3361C281.569 15.5926 282.561 17.0564 283.265 18.7276C283.969 20.3862 284.32 22.1768 284.32 24.0992C284.32 26.0468 283.969 27.8562 283.265 29.5274C282.561 31.1986 281.569 32.6561 280.287 33.9001C279.018 35.144 277.516 36.1179 275.782 36.8215C274.061 37.5126 272.17 37.8581 270.109 37.8581ZM270.109 30.7337C271.026 30.7337 271.862 30.5829 272.616 30.2813C273.382 29.9672 274.042 29.5211 274.595 28.9431C275.148 28.3651 275.575 27.6677 275.877 26.851C276.178 26.0343 276.329 25.117 276.329 24.0992C276.329 22.7422 276.065 21.5673 275.537 20.5747C275.01 19.582 274.275 18.8156 273.332 18.2753C272.402 17.735 271.328 17.4648 270.109 17.4648C269.192 17.4648 268.35 17.6219 267.584 17.936C266.83 18.2376 266.176 18.6773 265.623 19.2553C265.071 19.8333 264.643 20.5307 264.342 21.3475C264.04 22.1642 263.889 23.0815 263.889 24.0992C263.889 25.4563 264.153 26.6311 264.681 27.6238C265.209 28.6164 265.938 29.3829 266.867 29.9232C267.81 30.4635 268.89 30.7337 270.109 30.7337Z" fill="#111111" style="fill:#111111;fill:color(display-p3 0.0667 0.0667 0.0667);fill-opacity:1;"/>
<path d="M288.478 37.2927V10.9058H299.673C301.734 10.9058 303.531 11.2262 305.064 11.867C306.609 12.5078 307.803 13.4439 308.645 14.6753C309.499 15.8942 309.927 17.3768 309.927 19.1234C309.927 20.4051 309.7 21.5296 309.248 22.4972C308.796 23.4647 308.193 24.2814 307.439 24.9474C306.685 25.6133 305.856 26.1348 304.951 26.5118L311.472 37.2927H302.501L297.563 28.2081H296.092V37.2927H288.478ZM296.092 22.2145H298.882C299.925 22.2145 300.742 22.026 301.332 21.649C301.935 21.2721 302.237 20.6061 302.237 19.6511C302.237 18.6836 301.935 18.0177 301.332 17.6533C300.742 17.2763 299.937 17.0878 298.92 17.0878H296.092V22.2145Z" fill="#111111" style="fill:#111111;fill:color(display-p3 0.0667 0.0667 0.0667);fill-opacity:1;"/>
<path d="M314.946 37.2927V10.9058H326.217C328.24 10.9058 330.043 11.2639 331.626 11.9801C333.209 12.6963 334.453 13.7392 335.358 15.1088C336.275 16.4659 336.734 18.1056 336.734 20.0281C336.734 21.9631 336.313 23.6092 335.471 24.9662C334.629 26.3233 333.41 27.3599 331.815 28.0761C330.219 28.7923 328.29 29.1504 326.028 29.1504H322.56V37.2927H314.946ZM322.56 22.8553H325.727C326.782 22.8553 327.612 22.6605 328.215 22.271C328.818 21.8689 329.119 21.159 329.119 20.1412C329.119 19.0857 328.805 18.3632 328.177 17.9737C327.549 17.5842 326.745 17.3894 325.764 17.3894H322.56V22.8553Z" fill="#111111" style="fill:#111111;fill:color(display-p3 0.0667 0.0667 0.0667);fill-opacity:1;"/>
<path d="M78.4678 49.1893L91.379 41.9268V67.7493L78.4678 75.0118V49.1893Z" fill="#D9D9D9" style="fill:#D9D9D9;fill:color(display-p3 0.8510 0.8510 0.8510);fill-opacity:1;"/>
<path fill-rule="evenodd" clip-rule="evenodd" d="M91.7867 41.23C92.0342 41.3747 92.1863 41.6399 92.1863 41.9266V67.7491C92.1863 68.0406 92.029 68.3095 91.775 68.4524L78.8637 75.715C78.6138 75.8555 78.3082 75.853 78.0607 75.7082C77.8132 75.5635 77.6611 75.2983 77.6611 75.0117V49.1892C77.6611 48.8976 77.8184 48.6288 78.0725 48.4858L90.9837 41.2233C91.2336 41.0827 91.5393 41.0853 91.7867 41.23ZM79.275 49.6611V73.6319L90.5724 67.2771V43.3063L79.275 49.6611Z" fill="black" style="fill:black;fill-opacity:1;"/>
<path d="M13.9113 41.9268H91.3788L78.4675 49.1893H1L13.9113 41.9268Z" fill="#D9D9D9" style="fill:#D9D9D9;fill:color(display-p3 0.8510 0.8510 0.8510);fill-opacity:1;"/>
<path fill-rule="evenodd" clip-rule="evenodd" d="M13.516 41.2233C13.6368 41.1553 13.7731 41.1196 13.9116 41.1196H91.3792C91.7461 41.1196 92.0668 41.3672 92.1598 41.7221C92.2528 42.077 92.0946 42.45 91.7748 42.6299L78.8635 49.8925C78.7427 49.9604 78.6065 49.9961 78.4679 49.9961H1.00039C0.633473 49.9961 0.312748 49.7486 0.219772 49.3936C0.126795 49.0387 0.284976 48.6657 0.604769 48.4858L13.516 41.2233ZM14.123 42.7335L4.08094 48.3822H78.2565L88.2986 42.7335H14.123Z" fill="black" style="fill:black;fill-opacity:1;"/>
<path d="M1 49.189H26.8225V75.0115H1V49.189Z" fill="#FEE932" style="fill:#FEE932;fill:color(display-p3 0.9953 0.9155 0.1976);fill-opacity:1;"/>
<path fill-rule="evenodd" clip-rule="evenodd" d="M0.193359 49.1893C0.193359 48.7436 0.554645 48.3823 1.00031 48.3823H26.8228C27.2685 48.3823 27.6298 48.7436 27.6298 49.1893V75.0118C27.6298 75.4574 27.2685 75.8187 26.8228 75.8187H1.00031C0.554645 75.8187 0.193359 75.4574 0.193359 75.0118V49.1893ZM1.80727 49.9962V74.2048H26.0159V49.9962H1.80727Z" fill="black" style="fill:black;fill-opacity:1;"/>
<path d="M26.8223 49.189H52.6448V75.0115H26.8223V49.189Z" fill="#FEE932" style="fill:#FEE932;fill:color(display-p3 0.9953 0.9155 0.1976);fill-opacity:1;"/>
<path fill-rule="evenodd" clip-rule="evenodd" d="M26.0156 49.1893C26.0156 48.7436 26.3769 48.3823 26.8226 48.3823H52.6451C53.0907 48.3823 53.452 48.7436 53.452 49.1893V75.0118C53.452 75.4574 53.0907 75.8187 52.6451 75.8187H26.8226C26.3769 75.8187 26.0156 75.4574 26.0156 75.0118V49.1893ZM27.6295 49.9962V74.2048H51.8381V49.9962H27.6295Z" fill="black" style="fill:black;fill-opacity:1;"/>
<path d="M52.6455 49.189H78.468V75.0115H52.6455V49.189Z" fill="#FEE932" style="fill:#FEE932;fill:color(display-p3 0.9953 0.9155 0.1976);fill-opacity:1;"/>
<path fill-rule="evenodd" clip-rule="evenodd" d="M51.8389 49.1893C51.8389 48.7436 52.2002 48.3823 52.6458 48.3823H78.4683C78.914 48.3823 79.2753 48.7436 79.2753 49.1893V75.0118C79.2753 75.4574 78.914 75.8187 78.4683 75.8187H52.6458C52.2002 75.8187 51.8389 75.4574 51.8389 75.0118V49.1893ZM53.4528 49.9962V74.2048H77.6614V49.9962H53.4528Z" fill="black" style="fill:black;fill-opacity:1;"/>
<path d="M26.8223 49.189H52.6448V62.1002L51.202 62.5814C43.2619 65.2295 34.6517 65.0595 26.8223 62.1002V49.189Z" fill="#FEE932" style="fill:#FEE932;fill:color(display-p3 0.9953 0.9155 0.1976);fill-opacity:1;"/>
<path fill-rule="evenodd" clip-rule="evenodd" d="M26.0156 49.1893C26.0156 48.7436 26.3769 48.3823 26.8226 48.3823H52.6451C53.0907 48.3823 53.452 48.7436 53.452 49.1893V62.1005C53.452 62.4478 53.2298 62.7562 52.9004 62.866L51.4576 63.3472C43.3414 66.054 34.5403 65.8803 26.5373 62.8554L26.8226 62.1005H26.0156V49.1893ZM27.6295 61.5382C35.1449 64.2455 43.3589 64.3469 50.947 61.8162L51.8381 61.519V49.9962H27.6295V61.5382Z" fill="black" style="fill:black;fill-opacity:1;"/>
<path d="M78.4678 8.26258L91.379 1V26.8225L78.4678 34.0851V8.26258Z" fill="#D9D9D9" style="fill:#D9D9D9;fill:color(display-p3 0.8510 0.8510 0.8510);fill-opacity:1;"/>
<path fill-rule="evenodd" clip-rule="evenodd" d="M91.7867 0.303255C92.0342 0.447985 92.1863 0.713143 92.1863 0.999824V26.8223C92.1863 27.1139 92.029 27.3827 91.775 27.5257L78.8637 34.7882C78.6138 34.9288 78.3082 34.9262 78.0607 34.7815C77.8132 34.6367 77.6611 34.3716 77.6611 34.0849V8.2624C77.6611 7.97087 77.8184 7.70201 78.0725 7.55908L90.9837 0.296504C91.2336 0.155955 91.5393 0.158525 91.7867 0.303255ZM79.275 8.73435V32.7051L90.5724 26.3504V2.37959L79.275 8.73435Z" fill="black" style="fill:black;fill-opacity:1;"/>
<path d="M1 8.2627H26.8225V34.0852H1V8.2627Z" fill="#FEE932" style="fill:#FEE932;fill:color(display-p3 0.9953 0.9155 0.1976);fill-opacity:1;"/>
<path fill-rule="evenodd" clip-rule="evenodd" d="M0.193359 8.26301C0.193359 7.81734 0.554645 7.45605 1.00031 7.45605H26.8228C27.2685 7.45605 27.6298 7.81734 27.6298 8.26301V34.0855C27.6298 34.5312 27.2685 34.8925 26.8228 34.8925H1.00031C0.554645 34.8925 0.193359 34.5312 0.193359 34.0855V8.26301ZM1.80727 9.06996V33.2786H26.0159V9.06996H1.80727Z" fill="black" style="fill:black;fill-opacity:1;"/>
<path d="M26.8223 8.2627H52.6448V34.0852H26.8223V8.2627Z" fill="#FEE932" style="fill:#FEE932;fill:color(display-p3 0.9953 0.9155 0.1976);fill-opacity:1;"/>
<path fill-rule="evenodd" clip-rule="evenodd" d="M26.0156 8.26301C26.0156 7.81734 26.3769 7.45605 26.8226 7.45605H52.6451C53.0907 7.45605 53.452 7.81734 53.452 8.26301V34.0855C53.452 34.5312 53.0907 34.8925 52.6451 34.8925H26.8226C26.3769 34.8925 26.0156 34.5312 26.0156 34.0855V8.26301ZM27.6295 9.06996V33.2786H51.8381V9.06996H27.6295Z" fill="#262626" style="fill:#262626;fill:color(display-p3 0.1500 0.1500 0.1500);fill-opacity:1;"/>
<path d="M52.6455 8.2627H78.468V34.0852H52.6455V8.2627Z" fill="#FEE932" style="fill:#FEE932;fill:color(display-p3 0.9953 0.9155 0.1976);fill-opacity:1;"/>
<path fill-rule="evenodd" clip-rule="evenodd" d="M51.8389 8.26301C51.8389 7.81734 52.2002 7.45605 52.6458 7.45605H78.4683C78.914 7.45605 79.2753 7.81734 79.2753 8.26301V34.0855C79.2753 34.5312 78.914 34.8925 78.4683 34.8925H52.6458C52.2002 34.8925 51.8389 34.5312 51.8389 34.0855V8.26301ZM53.4528 9.06996V33.2786H77.6614V9.06996H53.4528Z" fill="black" style="fill:black;fill-opacity:1;"/>
<path d="M13.9113 1H91.3788L78.4675 8.26258H1L13.9113 1Z" fill="#D9D9D9" style="fill:#D9D9D9;fill:color(display-p3 0.8510 0.8510 0.8510);fill-opacity:1;"/>
<path fill-rule="evenodd" clip-rule="evenodd" d="M13.516 0.296504C13.6368 0.228561 13.7731 0.192871 13.9116 0.192871H91.3792C91.7461 0.192871 92.0668 0.440403 92.1598 0.795341C92.2528 1.15028 92.0946 1.52326 91.7748 1.70315L78.8635 8.96572C78.7427 9.03367 78.6065 9.06936 78.4679 9.06936H1.00039C0.633473 9.06936 0.312748 8.82182 0.219772 8.46689C0.126795 8.11195 0.284976 7.73897 0.604769 7.55908L13.516 0.296504ZM14.123 1.80678L4.08094 7.45545H78.2565L88.2986 1.80678H14.123Z" fill="black" style="fill:black;fill-opacity:1;"/>
<path fill-rule="evenodd" clip-rule="evenodd" d="M26.0156 8.26252C26.0156 7.81685 26.3769 7.45557 26.8226 7.45557H52.6451C53.0907 7.45557 53.452 7.81685 53.452 8.26252V21.1738C53.452 21.6194 53.0907 21.9807 52.6451 21.9807H26.8226C26.3769 21.9807 26.0156 21.6194 26.0156 21.1738V8.26252ZM27.6295 9.06947V20.3668H51.8381V9.06947H27.6295Z" fill="black" style="fill:black;fill-opacity:1;"/>
<path d="M26.8223 21.1733H52.6448V34.0846H26.8223V21.1733Z" fill="#FEE932" style="fill:#FEE932;fill:color(display-p3 0.9953 0.9155 0.1976);fill-opacity:1;"/>
<path fill-rule="evenodd" clip-rule="evenodd" d="M26.0156 21.1737C26.0156 20.728 26.3769 20.3667 26.8226 20.3667H52.6451C53.0907 20.3667 53.452 20.728 53.452 21.1737V34.0849C53.452 34.5306 53.0907 34.8919 52.6451 34.8919H26.8226C26.3769 34.8919 26.0156 34.5306 26.0156 34.0849V21.1737ZM27.6295 21.9806V33.278H51.8381V21.9806H27.6295Z" fill="black" style="fill:black;fill-opacity:1;"/>
<path d="M21.1729 17.9451C21.1729 17.4995 21.5341 17.1382 21.9798 17.1382C22.4255 17.1382 22.7868 17.4995 22.7868 17.9451V25.2077C22.7868 25.6534 22.4255 26.0147 21.9798 26.0147C21.5341 26.0147 21.1729 25.6534 21.1729 25.2077V17.9451Z" fill="black" style="fill:black;fill-opacity:1;"/>
<path d="M72.8184 17.9451C72.8184 17.4995 73.1796 17.1382 73.6253 17.1382C74.071 17.1382 74.4323 17.4995 74.4323 17.9451V25.2077C74.4323 25.6534 74.071 26.0147 73.6253 26.0147C73.1796 26.0147 72.8184 25.6534 72.8184 25.2077V17.9451Z" fill="black" style="fill:black;fill-opacity:1;"/>
</svg>
