<svg width="260" height="142" viewBox="0 0 260 142" fill="none" xmlns="http://www.w3.org/2000/svg">
<path d="M260 142H0V52.3816L130 0L260 52.3816V142Z" fill="#FFE55B"/>
<path d="M74.6821 118.863H75.8581V122.531C76.2221 122.167 76.6375 121.892 77.1041 121.705C77.5801 121.519 78.0608 121.425 78.5461 121.425C79.0595 121.425 79.5541 121.523 80.0301 121.719C80.5061 121.915 80.9215 122.195 81.2761 122.559C82.0321 123.343 82.4101 124.253 82.4101 125.289V128.999H81.2341V125.289C81.2341 124.907 81.1641 124.552 81.0241 124.225C80.8841 123.899 80.6881 123.623 80.4361 123.399C80.2121 123.147 79.9321 122.951 79.5961 122.811C79.2601 122.671 78.9101 122.601 78.5461 122.601C78.1821 122.601 77.8321 122.671 77.4961 122.811C77.1601 122.951 76.8801 123.147 76.6561 123.399C76.3948 123.623 76.1941 123.903 76.0541 124.239C75.9235 124.566 75.8581 124.916 75.8581 125.289V128.999H74.6821V118.863Z" fill="black"/>
<path d="M87.405 129.153C86.9196 129.153 86.425 129.055 85.921 128.859C85.4636 128.673 85.0483 128.393 84.675 128.019C84.3016 127.646 84.0216 127.231 83.835 126.773C83.639 126.269 83.541 125.775 83.541 125.289C83.541 124.804 83.639 124.309 83.835 123.805C84.0216 123.348 84.3016 122.933 84.675 122.559C85.0483 122.186 85.4636 121.906 85.921 121.719C86.425 121.523 86.9196 121.425 87.405 121.425C87.8903 121.425 88.385 121.523 88.889 121.719C89.3556 121.915 89.757 122.181 90.093 122.517V121.579H91.269V128.999H90.093V128.061C89.757 128.397 89.3556 128.663 88.889 128.859C88.385 129.055 87.8903 129.153 87.405 129.153ZM84.717 125.289C84.717 125.588 84.787 125.933 84.927 126.325C85.039 126.624 85.235 126.909 85.515 127.179C85.7203 127.403 86.005 127.599 86.369 127.767C86.677 127.907 87.0223 127.977 87.405 127.977C87.7036 127.977 88.049 127.907 88.441 127.767C88.7396 127.655 89.0243 127.459 89.295 127.179C89.519 126.974 89.715 126.689 89.883 126.325C90.023 126.017 90.093 125.672 90.093 125.289C90.093 124.991 90.023 124.645 89.883 124.253C89.771 123.955 89.575 123.67 89.295 123.399C89.0896 123.175 88.805 122.979 88.441 122.811C88.133 122.671 87.7876 122.601 87.405 122.601C87.1063 122.601 86.761 122.671 86.369 122.811C86.0703 122.923 85.7856 123.119 85.515 123.399C85.291 123.605 85.095 123.889 84.927 124.253C84.787 124.561 84.717 124.907 84.717 125.289Z" fill="black"/>
<path d="M94.3958 121.579V122.517C94.7971 122.144 95.2031 121.878 95.6138 121.719C96.0991 121.533 96.5938 121.439 97.0978 121.439C97.5831 121.439 98.0684 121.533 98.5538 121.719L99.1138 121.929L98.6798 123.021L98.1338 122.825C97.8071 122.676 97.4618 122.601 97.0978 122.601C96.7524 122.601 96.4024 122.671 96.0478 122.811C95.6838 122.989 95.3991 123.185 95.1938 123.399C94.9791 123.605 94.7831 123.889 94.6058 124.253C94.4658 124.599 94.3958 124.949 94.3958 125.303V128.999H93.2338V121.579H94.3958Z" fill="black"/>
<path d="M103.25 129.167C102.708 129.167 102.214 129.069 101.766 128.873C101.271 128.649 100.856 128.369 100.52 128.033C100.146 127.641 99.8662 127.221 99.6796 126.773C99.4836 126.297 99.3856 125.807 99.3856 125.303C99.3856 124.79 99.4836 124.295 99.6796 123.819C99.8662 123.371 100.146 122.951 100.52 122.559C100.94 122.158 101.355 121.878 101.766 121.719C102.298 121.523 102.792 121.425 103.25 121.425C103.791 121.425 104.286 121.523 104.734 121.719C105.191 121.915 105.592 122.181 105.938 122.517V118.863H107.114V128.999H105.938V128.075C105.564 128.449 105.163 128.715 104.734 128.873C104.202 129.069 103.707 129.167 103.25 129.167ZM100.562 125.303C100.562 125.667 100.627 126.013 100.758 126.339C100.926 126.694 101.126 126.979 101.36 127.193C101.546 127.399 101.831 127.599 102.214 127.795C102.559 127.926 102.904 127.991 103.25 127.991C103.595 127.991 103.94 127.926 104.286 127.795C104.668 127.599 104.953 127.399 105.14 127.193C105.373 126.979 105.574 126.694 105.742 126.339C105.872 126.013 105.938 125.667 105.938 125.303C105.938 124.93 105.872 124.58 105.742 124.253C105.574 123.899 105.373 123.614 105.14 123.399C104.953 123.185 104.668 122.984 104.286 122.797C103.94 122.667 103.595 122.601 103.25 122.601C102.904 122.601 102.559 122.667 102.214 122.797C101.831 122.984 101.546 123.185 101.36 123.399C101.126 123.614 100.926 123.899 100.758 124.253C100.627 124.58 100.562 124.93 100.562 125.303Z" fill="black"/>
<path d="M112.9 129.153C112.695 129.172 112.541 129.181 112.438 129.181C111.859 129.181 111.299 129.06 110.758 128.817C110.077 128.509 109.535 128.043 109.134 127.417C108.938 127.109 108.784 126.773 108.672 126.409C108.569 126.036 108.518 125.663 108.518 125.289C108.518 124.953 108.569 124.613 108.672 124.267C108.775 123.913 108.919 123.577 109.106 123.259C109.47 122.662 110.007 122.186 110.716 121.831C111.22 121.579 111.771 121.453 112.368 121.453C112.471 121.453 112.634 121.463 112.858 121.481C113.539 121.537 114.197 121.817 114.832 122.321L115.308 122.699L114.538 123.581L114.09 123.231C113.595 122.839 113.031 122.643 112.396 122.643C111.976 122.643 111.584 122.727 111.22 122.895C110.763 123.101 110.389 123.432 110.1 123.889C109.96 124.104 109.857 124.328 109.792 124.561C109.727 124.795 109.694 125.056 109.694 125.345C109.703 125.859 109.848 126.335 110.128 126.773C110.38 127.175 110.753 127.506 111.248 127.767C111.64 127.926 112.009 128.005 112.354 128.005C112.522 128.005 112.653 127.996 112.746 127.977C113.343 127.847 113.805 127.646 114.132 127.375L114.58 127.025L115.308 127.893L114.874 128.271C114.603 128.514 114.295 128.715 113.95 128.873C113.605 129.023 113.255 129.116 112.9 129.153Z" fill="black"/>
<path d="M120.297 129.153C119.765 129.153 119.271 129.055 118.813 128.859C118.347 128.663 117.931 128.383 117.567 128.019C117.185 127.637 116.905 127.221 116.727 126.773C116.531 126.279 116.433 125.784 116.433 125.289C116.433 124.757 116.531 124.263 116.727 123.805C116.923 123.339 117.203 122.923 117.567 122.559C117.95 122.177 118.365 121.897 118.813 121.719C119.308 121.523 119.803 121.425 120.297 121.425C120.829 121.425 121.324 121.523 121.781 121.719C122.248 121.915 122.663 122.195 123.027 122.559C123.41 122.942 123.69 123.357 123.867 123.805C124.063 124.291 124.161 124.785 124.161 125.289C124.161 125.821 124.063 126.316 123.867 126.773C123.671 127.24 123.391 127.655 123.027 128.019C122.645 128.402 122.229 128.682 121.781 128.859C121.296 129.055 120.801 129.153 120.297 129.153ZM117.609 125.289C117.609 125.663 117.675 126.008 117.805 126.325C117.973 126.68 118.174 126.965 118.407 127.179C118.622 127.413 118.907 127.613 119.261 127.781C119.579 127.912 119.924 127.977 120.297 127.977C120.671 127.977 121.016 127.912 121.333 127.781C121.688 127.613 121.973 127.413 122.187 127.179C122.421 126.965 122.621 126.68 122.789 126.325C122.92 126.008 122.985 125.663 122.985 125.289C122.985 124.916 122.92 124.571 122.789 124.253C122.621 123.899 122.421 123.614 122.187 123.399C121.973 123.166 121.688 122.965 121.333 122.797C121.016 122.667 120.671 122.601 120.297 122.601C119.924 122.601 119.579 122.667 119.261 122.797C118.907 122.965 118.622 123.166 118.407 123.399C118.174 123.614 117.973 123.899 117.805 124.253C117.675 124.571 117.609 124.916 117.609 125.289Z" fill="black"/>
<path d="M127.015 121.579V122.517C127.416 122.144 127.822 121.878 128.233 121.719C128.718 121.533 129.213 121.439 129.717 121.439C130.202 121.439 130.687 121.533 131.173 121.719L131.733 121.929L131.299 123.021L130.753 122.825C130.426 122.676 130.081 122.601 129.717 122.601C129.371 122.601 129.021 122.671 128.667 122.811C128.303 122.989 128.018 123.185 127.813 123.399C127.598 123.605 127.402 123.889 127.225 124.253C127.085 124.599 127.015 124.949 127.015 125.303V128.999H125.853V121.579H127.015Z" fill="black"/>
<path d="M136.716 129.153C136.175 129.153 135.68 129.055 135.232 128.859C134.775 128.673 134.373 128.407 134.028 128.061V132.275H132.852V121.579H134.028V122.503C134.429 122.121 134.831 121.855 135.232 121.705C135.764 121.509 136.259 121.411 136.716 121.411C137.257 121.411 137.752 121.509 138.2 121.705C138.667 121.92 139.082 122.2 139.446 122.545C139.81 122.928 140.09 123.348 140.286 123.805C140.482 124.281 140.58 124.776 140.58 125.289C140.58 125.793 140.482 126.283 140.286 126.759C140.099 127.207 139.819 127.627 139.446 128.019C139.035 128.43 138.62 128.71 138.2 128.859C137.631 129.055 137.136 129.153 136.716 129.153ZM134.028 125.289C134.028 125.653 134.093 125.999 134.224 126.325C134.392 126.68 134.593 126.965 134.826 127.179C135.013 127.385 135.297 127.585 135.68 127.781C136.025 127.912 136.371 127.977 136.716 127.977C137.061 127.977 137.407 127.912 137.752 127.781C138.135 127.585 138.419 127.385 138.606 127.179C138.839 126.965 139.04 126.68 139.208 126.325C139.339 125.999 139.404 125.653 139.404 125.289C139.404 124.916 139.339 124.566 139.208 124.239C139.059 123.903 138.858 123.619 138.606 123.385C138.419 123.171 138.135 122.97 137.752 122.783C137.407 122.653 137.061 122.587 136.716 122.587C136.371 122.587 136.025 122.653 135.68 122.783C135.297 122.97 135.013 123.171 134.826 123.385C134.574 123.619 134.373 123.903 134.224 124.239C134.093 124.566 134.028 124.916 134.028 125.289Z" fill="black"/>
<path d="M143.287 128.999C143.082 128.999 142.904 128.929 142.755 128.789C142.615 128.64 142.545 128.463 142.545 128.257C142.545 128.043 142.615 127.865 142.755 127.725C142.904 127.585 143.082 127.515 143.287 127.515C143.502 127.515 143.679 127.585 143.819 127.725C143.959 127.865 144.029 128.043 144.029 128.257C144.029 128.463 143.959 128.64 143.819 128.789C143.679 128.929 143.502 128.999 143.287 128.999Z" fill="black"/>
<path d="M145.853 118.863H147.029V122.531C147.393 122.167 147.808 121.892 148.275 121.705C148.751 121.519 149.232 121.425 149.717 121.425C150.23 121.425 150.725 121.523 151.201 121.719C151.677 121.915 152.092 122.195 152.447 122.559C153.203 123.343 153.581 124.253 153.581 125.289V128.999H152.405V125.289C152.405 124.907 152.335 124.552 152.195 124.225C152.055 123.899 151.859 123.623 151.607 123.399C151.383 123.147 151.103 122.951 150.767 122.811C150.431 122.671 150.081 122.601 149.717 122.601C149.353 122.601 149.003 122.671 148.667 122.811C148.331 122.951 148.051 123.147 147.827 123.399C147.566 123.623 147.365 123.903 147.225 124.239C147.094 124.566 147.029 124.916 147.029 125.289V128.999H145.853V118.863Z" fill="black"/>
<path d="M158.576 129.153C158.044 129.153 157.549 129.055 157.092 128.859C156.625 128.663 156.21 128.383 155.846 128.019C155.463 127.637 155.183 127.221 155.006 126.773C154.81 126.279 154.712 125.784 154.712 125.289C154.712 124.757 154.81 124.263 155.006 123.805C155.202 123.339 155.482 122.923 155.846 122.559C156.228 122.177 156.644 121.897 157.092 121.719C157.586 121.523 158.081 121.425 158.576 121.425C159.108 121.425 159.602 121.523 160.06 121.719C160.526 121.915 160.942 122.195 161.306 122.559C161.688 122.942 161.968 123.357 162.146 123.805C162.342 124.291 162.44 124.785 162.44 125.289C162.44 125.821 162.342 126.316 162.146 126.773C161.95 127.24 161.67 127.655 161.306 128.019C160.923 128.402 160.508 128.682 160.06 128.859C159.574 129.055 159.08 129.153 158.576 129.153ZM155.888 125.289C155.888 125.663 155.953 126.008 156.084 126.325C156.252 126.68 156.452 126.965 156.686 127.179C156.9 127.413 157.185 127.613 157.54 127.781C157.857 127.912 158.202 127.977 158.576 127.977C158.949 127.977 159.294 127.912 159.612 127.781C159.966 127.613 160.251 127.413 160.466 127.179C160.699 126.965 160.9 126.68 161.068 126.325C161.198 126.008 161.264 125.663 161.264 125.289C161.264 124.916 161.198 124.571 161.068 124.253C160.9 123.899 160.699 123.614 160.466 123.399C160.251 123.166 159.966 122.965 159.612 122.797C159.294 122.667 158.949 122.601 158.576 122.601C158.202 122.601 157.857 122.667 157.54 122.797C157.185 122.965 156.9 123.166 156.686 123.399C156.452 123.614 156.252 123.899 156.084 124.253C155.953 124.571 155.888 124.916 155.888 125.289Z" fill="black"/>
<path d="M166.665 129.139C166.105 129.139 165.587 129.004 165.111 128.733C164.635 128.453 164.257 128.08 163.977 127.613C163.706 127.137 163.571 126.619 163.571 126.059V121.579H164.747V126.059C164.747 126.405 164.831 126.727 164.999 127.025C165.176 127.315 165.409 127.548 165.699 127.725C165.997 127.893 166.319 127.977 166.665 127.977C167.001 127.977 167.313 127.893 167.603 127.725C167.901 127.548 168.135 127.315 168.303 127.025C168.48 126.727 168.569 126.405 168.569 126.059V121.579H169.745V126.059C169.745 126.619 169.605 127.137 169.325 127.613C169.054 128.08 168.681 128.453 168.205 128.733C167.738 129.004 167.225 129.139 166.665 129.139Z" fill="black"/>
<path d="M173.958 129.167C173.473 129.167 173.011 129.074 172.572 128.887C172.143 128.701 171.798 128.439 171.536 128.103C171.275 127.758 171.144 127.371 171.144 126.941V126.521H172.32V126.941C172.32 127.24 172.484 127.492 172.81 127.697C173.146 127.893 173.529 127.991 173.958 127.991C174.397 127.991 174.78 127.893 175.106 127.697C175.433 127.492 175.596 127.24 175.596 126.941C175.596 126.745 175.522 126.587 175.372 126.465C175.232 126.344 175.069 126.251 174.882 126.185C174.705 126.12 174.439 126.041 174.084 125.947C173.608 125.817 173.193 125.681 172.838 125.541C172.493 125.401 172.162 125.177 171.844 124.869C171.527 124.552 171.368 124.151 171.368 123.665C171.368 123.236 171.48 122.853 171.704 122.517C171.928 122.181 172.236 121.92 172.628 121.733C173.03 121.537 173.473 121.439 173.958 121.439C174.406 121.439 174.831 121.547 175.232 121.761C175.634 121.967 175.956 122.242 176.198 122.587C176.441 122.923 176.562 123.283 176.562 123.665V124.085H175.4L175.386 123.665C175.386 123.404 175.237 123.166 174.938 122.951C174.64 122.727 174.313 122.615 173.958 122.615C173.538 122.615 173.198 122.713 172.936 122.909C172.675 123.105 172.544 123.357 172.544 123.665C172.544 123.983 172.74 124.225 173.132 124.393C173.534 124.561 174.052 124.725 174.686 124.883C175.368 125.042 175.886 125.299 176.24 125.653C176.595 126.008 176.772 126.437 176.772 126.941C176.772 127.371 176.642 127.758 176.38 128.103C176.119 128.439 175.769 128.701 175.33 128.887C174.901 129.074 174.444 129.167 173.958 129.167Z" fill="black"/>
<path d="M182.945 129.055C182.674 129.121 182.38 129.153 182.063 129.153C181.391 129.153 180.752 128.985 180.145 128.649C179.548 128.304 179.067 127.842 178.703 127.263C178.348 126.685 178.171 126.045 178.171 125.345C178.171 124.935 178.241 124.515 178.381 124.085C178.642 123.283 179.109 122.639 179.781 122.153C180.462 121.668 181.223 121.425 182.063 121.425C182.324 121.425 182.525 121.439 182.665 121.467C183.29 121.589 183.85 121.836 184.345 122.209C184.84 122.583 185.222 123.04 185.493 123.581C185.773 124.113 185.913 124.683 185.913 125.289V125.877H179.417C179.622 126.54 179.958 127.058 180.425 127.431C180.901 127.805 181.442 127.991 182.049 127.991C182.226 127.991 182.441 127.968 182.693 127.921C183.085 127.819 183.402 127.669 183.645 127.473C183.897 127.268 184.21 126.909 184.583 126.395L185.521 127.095C185.064 127.73 184.653 128.183 184.289 128.453C183.925 128.724 183.477 128.925 182.945 129.055ZM184.681 124.701C184.56 124.169 184.303 123.717 183.911 123.343C183.528 122.97 183.048 122.732 182.469 122.629C182.32 122.601 182.166 122.587 182.007 122.587C181.41 122.587 180.882 122.769 180.425 123.133C179.977 123.497 179.641 124.02 179.417 124.701H184.681Z" fill="black"/>
<path d="M96.3232 90.7695C97.1626 90.7695 97.8428 90.1309 97.8428 89.3418C97.8428 88.5547 97.1626 87.916 96.3232 87.916C95.4839 87.916 94.8037 88.5547 94.8037 89.3418C94.8037 90.1309 95.4839 90.7695 96.3232 90.7695Z" fill="black"/>
<path d="M122.047 90.252C121.768 90.5684 121.347 90.7695 120.876 90.7695C120.037 90.7695 119.356 90.1309 119.356 89.3418C119.356 88.9141 119.557 88.5293 119.875 88.2676C120.143 88.0488 120.493 87.916 120.876 87.916C121.715 87.916 122.396 88.5547 122.396 89.3418C122.396 89.4473 122.383 89.5488 122.36 89.6465C122.308 89.873 122.199 90.0781 122.047 90.252Z" fill="black"/>
<path d="M129.755 90.7734C130.594 90.7734 131.275 90.1348 131.275 89.3457C131.275 88.5586 130.594 87.9199 129.755 87.9199C128.916 87.9199 128.235 88.5586 128.235 89.3457C128.235 89.8125 128.474 90.2285 128.843 90.4883C129.097 90.668 129.413 90.7734 129.755 90.7734Z" fill="black"/>
<path fill-rule="evenodd" clip-rule="evenodd" d="M125.378 33.9844L107.143 35.8867L101.571 41.5938L125.378 37.3125V39.2148H117.275L117.276 51.5215H112.698L100.512 80.5449H99.3032V51.5215H92.9106V62.4004H79.0117V51.5215H72.6191V79.9062C72.2295 79.832 71.835 79.7695 71.4355 79.7188C71.0781 79.666 70.5005 79.6406 69.7031 79.6406C66.9814 79.6406 64.5342 80.1309 62.3623 81.1113C60.9873 81.7305 59.6953 82.5566 58.4854 83.5898C58.0889 83.9277 57.7153 84.2734 57.3652 84.6289C56.6714 85.332 56.0688 86.0703 55.5571 86.8418C55.3296 87.1836 55.1172 87.5332 54.9189 87.8906L54.7095 88.2793L54.5117 88.6758C54.1748 89.377 53.8906 90.1074 53.6597 90.8672C53.2197 92.3125 53 93.7715 53 95.2422C53 96.6367 53.2339 98.0566 53.7012 99.502C53.9629 100.297 54.2856 101.064 54.6685 101.803C54.9688 102.383 55.3062 102.943 55.6807 103.488C56.5059 104.701 57.5229 105.811 58.7329 106.818C59.9424 107.799 61.2349 108.586 62.6094 109.18C63.6543 109.645 64.7954 109.992 66.0327 110.225C67.2974 110.482 68.5625 110.611 69.8271 110.611L70.2788 110.605L70.8032 110.582L71.1978 110.553L71.5415 110.518L71.7241 110.496C73.2915 110.289 74.8037 109.877 76.2607 109.258C77.7183 108.637 79.0244 107.85 80.1792 106.895L82.5713 104.883L78.6118 100.469L76.1782 102.172C75.4634 102.766 74.6387 103.244 73.7041 103.605C72.7964 103.967 71.834 104.211 70.8169 104.34C70.377 104.418 69.9097 104.457 69.4146 104.457C69.0293 104.457 68.6494 104.434 68.2749 104.389L67.9873 104.35L67.6699 104.297C67.4751 104.262 67.2817 104.219 67.0898 104.17C66.5186 104.023 65.96 103.822 65.4141 103.566C63.7095 102.791 62.2935 101.67 61.166 100.197C60.5405 99.3164 60.0962 98.3281 59.833 97.2305C59.6797 96.5918 59.5879 95.916 59.5576 95.2031L59.5596 95.0176L59.5659 94.8008L59.5786 94.584L59.6016 94.3145L59.6401 93.9941C59.7339 93.3125 59.9082 92.6465 60.1626 91.9941C60.3999 91.3867 60.707 90.791 61.0835 90.209C61.9634 88.791 63.3384 87.6289 65.208 86.7246C66.5 86.0801 67.916 85.7578 69.4561 85.7578C69.6694 85.7578 69.918 85.7676 70.2012 85.7891L70.6934 85.834C71.2383 85.8789 71.7749 85.9727 72.3022 86.1152C72.5229 86.1758 72.7422 86.2441 72.9595 86.3203C73.1401 86.3848 73.3193 86.4551 73.4976 86.5312C74.4326 86.918 75.2847 87.4219 76.0547 88.041L78.4468 89.707L82.4062 85.1758L80.0552 83.1641C79.8735 83.0254 79.6885 82.8906 79.5 82.7578C79.2144 82.5586 78.9204 82.3672 78.6187 82.1855C77.8213 81.7051 76.9663 81.2832 76.0547 80.918C75.7734 80.8027 75.4893 80.6953 75.2017 80.5957H79.0117V68.4785H92.9106V80.5449H83.5894V109.719H155.263V80.5957H157.704V109.617H164.097V98.7383H171.974C171.727 98.7383 171.562 98.752 171.479 98.7773L176.882 109.617H183.893L177.624 97.1133C178.889 96.2617 179.865 95.1641 180.552 93.8223C181.267 92.4805 181.625 91.0859 181.625 89.6406C181.625 89.2422 181.598 88.8496 181.545 88.4648L181.512 88.2422L181.446 87.8945C181.405 87.6992 181.357 87.5059 181.302 87.3164C181.083 86.5527 180.75 85.8164 180.305 85.1113C179.966 84.5566 179.578 84.0488 179.14 83.584L178.856 83.2969L178.685 83.1348C178.576 83.0352 178.465 82.9375 178.351 82.8418C177.879 82.4473 177.362 82.0938 176.799 81.7812C175.621 81.125 174.365 80.7305 173.031 80.5957H173.852C176.656 80.5957 179.241 79.9512 181.605 78.6602C183.998 77.3438 185.881 75.5762 187.255 73.3555C188.658 71.1367 189.359 68.7109 189.359 66.0781C189.359 63.4453 188.658 61.0195 187.255 58.7988C185.881 56.5547 183.998 54.7871 181.605 53.4961C179.241 52.1797 176.656 51.5215 173.852 51.5215H161.025V80.543H158.189L151.947 68.0918C153.211 67.2402 154.188 66.1426 154.875 64.8008C155.59 63.459 155.947 62.0645 155.947 60.6191C155.947 60.3301 155.934 60.0449 155.906 59.7637C155.875 59.4512 155.827 59.1426 155.761 58.8379C155.555 57.877 155.177 56.9609 154.627 56.0898C154.267 55.5 153.85 54.9609 153.375 54.4727C152.729 53.8066 151.978 53.2363 151.122 52.7598C150.344 52.3262 149.533 52.0078 148.687 51.8027C147.918 51.6152 147.122 51.5215 146.296 51.5215H137.537V41.5938H140.068L147.16 46.8223L140.068 35.8867H134.496L132.977 33.9844H144.12L149.692 37.3125L147.16 31.1328H132.977L147.16 24H140.068L126.898 31.1328V24L113.222 25.4258L103.091 33.9844L113.222 29.7051H120.313L125.378 33.9844ZM131.288 39.2148L129.938 37.3125L127.574 39.2148H131.288ZM117.275 51.5781H132.026V80.5449H129.462L117.275 51.5781ZM122.616 80.5449H107.358L110.43 73.2402H119.544L122.616 80.5449ZM151.179 80.5449H138.419V69.7168H146.296C146.049 69.7168 145.884 69.7305 145.801 69.7559L151.179 80.5449ZM114.966 62.3613L112.904 67.3164H117.07L114.966 62.3613ZM147.228 63.5605C146.936 63.6387 146.625 63.6777 146.296 63.6777H138.419V57.5215H146.296C147.204 57.5215 147.974 57.832 148.606 58.4512C148.943 58.7676 149.19 59.1211 149.347 59.5098C149.485 59.8516 149.555 60.2207 149.555 60.6191C149.555 61.4707 149.238 62.1934 148.606 62.7871C148.38 63 148.136 63.1738 147.875 63.3105C147.67 63.416 147.455 63.5 147.228 63.5605ZM173.852 74.5957C174.388 74.5957 174.91 74.5566 175.417 74.4766C175.837 74.4121 176.247 74.3184 176.647 74.1992C177 74.0938 177.346 73.9648 177.684 73.8164C177.843 73.748 178.001 73.6719 178.158 73.5918L178.388 73.4727C179.791 72.6973 180.904 71.666 181.729 70.375C182.554 69.0586 182.966 67.627 182.966 66.0781C182.966 65.4844 182.906 64.9062 182.784 64.3457C182.589 63.4473 182.237 62.5918 181.729 61.7812C181.501 61.4062 181.249 61.0527 180.972 60.7227C180.583 60.2598 180.145 59.8418 179.658 59.4707C179.278 59.1797 178.869 58.918 178.43 58.6836C177.027 57.9102 175.501 57.5215 173.852 57.5215H167.418V74.5957H173.852ZM173.18 92.4961C172.81 92.6309 172.408 92.6992 171.974 92.6992H164.097V86.543H171.974C172.556 86.543 173.081 86.6699 173.549 86.9258C173.615 86.9609 173.681 87 173.745 87.041L173.906 87.1504C173.972 87.1992 174.037 87.25 174.101 87.3047L174.183 87.377L174.284 87.4727C174.916 88.0664 175.232 88.7891 175.232 89.6406C175.232 90.4922 174.916 91.2148 174.284 91.8086C173.953 92.1191 173.585 92.3477 173.18 92.4961ZM99.8696 86.1914H89.6465V104.072L99.8696 104.082V86.1914ZM100.883 86.1914H125.195V104.082H100.883V86.1914ZM149.206 86.1914H126.208V104.082L149.206 104.072V86.1914Z" fill="black"/>
<path fill-rule="evenodd" clip-rule="evenodd" d="M203.216 81.7812C201.732 80.9551 200.123 80.543 198.391 80.543H184.121V109.617H190.514V98.7383H198.391C200.123 98.7383 201.732 98.3262 203.216 97.5C204.701 96.6738 205.87 95.5645 206.722 94.1699C207.294 93.2637 207.681 92.3086 207.881 91.3027C207.988 90.7637 208.042 90.209 208.042 89.6406C208.042 89.3555 208.028 89.0742 208.001 88.7969C207.942 88.1914 207.819 87.6035 207.632 87.0312C207.487 86.5898 207.304 86.1582 207.083 85.7363C206.972 85.5254 206.852 85.3164 206.722 85.1113C206.346 84.4961 205.908 83.9355 205.409 83.4316C204.777 82.793 204.046 82.2422 203.216 81.7812ZM200.659 91.8086C200.027 92.4023 199.271 92.6992 198.391 92.6992H190.514V86.543H198.391C198.858 86.543 199.29 86.6309 199.688 86.8047C200.039 86.959 200.362 87.1816 200.659 87.4727C200.899 87.6973 201.095 87.9355 201.248 88.1875C201.312 88.293 201.368 88.4004 201.416 88.5098C201.467 88.625 201.509 88.7422 201.543 88.8613C201.591 89.0312 201.623 89.2051 201.639 89.3848C201.646 89.4688 201.649 89.5547 201.649 89.6406C201.649 89.9551 201.604 90.252 201.514 90.5312C201.36 91.0078 201.076 91.4336 200.659 91.8086Z" fill="black"/>
</svg>
